<?xml version="1.0" encoding="UTF-8"?>
<svg xmlns="http://www.w3.org/2000/svg" version="1.1" viewBox="0 0 750 500">
  <!-- Generator: Adobe Illustrator 29.6.0, SVG Export Plug-In . SVG Version: 2.1.1 Build 207)  -->
  <defs>
    <style>
      .st0, .st1 {
        fill: #e8505b;
      }

      .st2 {
        fill: #fafafa;
      }

      .st3, .st4 {
        fill: #263238;
      }

      .st5 {
        opacity: .3;
      }

      .st6 {
        fill: #eb996e;
      }

      .st7 {
        fill: #fff;
      }

      .st8 {
        opacity: .4;
      }

      .st9 {
        fill: #e0e0e0;
      }

      .st10 {
        fill: #455a64;
      }

      .st11 {
        opacity: .2;
      }

      .st12 {
        fill: #ffbe9d;
      }

      .st4, .st1 {
        font-family: Tahoma-Bold, Tahoma;
        font-size: 24px;
        font-weight: 700;
        letter-spacing: .05em;
      }

      .st13 {
        fill: #ebebeb;
      }

      .st14 {
        opacity: .48;
      }

      .st15 {
        fill: #e9bc7d;
      }
    </style>
  </defs>
  <g id="Background_Complete">
    <g>
      <path class="st13" d="M593.355,373.852c-13.926-19.8-9.383-45.526-.756-67.004,1.439-3.585,2.429-7.556,5.311-10.115,2.883-2.557,7.7-3.273,10.396-.564,2.235,2.247,2.272,5.808,2.84,8.948.754,4.178,2.708,8.118,5.563,11.219,1.876,2.038,4.47,3.809,7.208,3.378,3.757-.592,5.696-4.783,6.983-8.402,2.398-6.744,4.798-13.488,7.196-20.23,1.287-3.618,2.614-7.308,4.979-10.327,2.366-3.019,6.001-5.302,9.784-5.018,3.784.285,7.312,3.805,6.755,7.602-.231,1.58-1.085,2.998-1.528,4.532-.443,1.535-.347,3.447.925,4.38,1.287.946,3.103.447,4.566-.219,5.049-2.293,9.28-6.072,13.338-9.884,4.057-3.812,8.085-7.761,12.908-10.51,4.823-2.749,10.643-4.203,15.919-2.621,5.277,1.583,9.627,6.773,9.093,12.322-.536,5.565-5.379,9.651-10.104,12.599-7.011,4.374-14.643,7.722-22.58,9.907-1.431.395-2.981.82-3.901,2-1.657,2.122-.244,5.34,1.845,6.993,2.366,1.873,5.387,2.652,8.082,4.005,2.695,1.353,5.294,3.7,5.393,6.747.14,4.226-4.349,6.975-8.304,8.406-7.92,2.867-16.317,4.355-24.708,4.382-3.008.008-6.112-.153-8.93.936-2.819,1.09-5.288,3.865-4.917,6.877.371,3.016,3.397,5.034,6.366,5.527,2.968.493,6.006-.114,9.02-.152,5.64-.073,11.923,2.593,13.546,8.034,1.066,3.576-.174,7.567-2.449,10.544-2.274,2.977-5.467,5.093-8.71,6.937-11.336,6.444-24.239,10.262-37.196,10.077-12.955-.184-24.011-2.972-33.931-11.305"/>
      <path class="st9" d="M603.914,362.256c7.181-9.813,15.945-19.916,25.475-30.169,2.392-2.554,4.755-5.078,7.084-7.565,2.331-2.477,4.642-4.935,7.051-7.198,4.8-4.549,9.76-8.557,14.589-12.214,4.828-3.661,9.543-6.958,13.974-10.009,4.44-3.043,8.631-5.802,12.559-8.152,7.844-4.732,14.61-7.793,19.34-9.704,2.364-.964,4.223-1.65,5.489-2.099.608-.211,1.084-.377,1.443-.502.326-.108.495-.159.499-.147.005.012-.156.085-.475.216-.353.141-.822.328-1.419.567-1.249.492-3.09,1.22-5.436,2.221-4.691,1.988-11.4,5.109-19.188,9.881-3.9,2.371-8.066,5.147-12.484,8.207-4.414,3.071-9.109,6.381-13.915,10.046-4.805,3.663-9.738,7.667-14.504,12.198-2.393,2.255-4.681,4.693-7.015,7.178-2.327,2.486-4.688,5.01-7.078,7.563-9.521,10.245-18.278,20.311-25.468,30.073"/>
      <path class="st9" d="M643.723,317.367c-.047-.009.029-.602.206-1.668.172-1.067.472-2.6.871-4.491.793-3.78,2.067-8.962,3.494-14.67,1.427-5.711,2.624-10.897,3.358-14.677.372-1.89.658-3.422.842-4.484.19-1.062.318-1.646.367-1.641.048.006.012.602-.095,1.678-.101,1.076-.312,2.626-.623,4.532-.609,3.818-1.734,9.043-3.163,14.759-1.421,5.629-2.708,10.721-3.691,14.612-.433,1.761-.797,3.245-1.089,4.436-.261,1.046-.427,1.623-.476,1.613Z"/>
      <path class="st9" d="M693.284,325.53c-.016.046-.704-.116-1.932-.45-1.229-.326-3.006-.807-5.219-1.331-4.417-1.083-10.572-2.366-17.424-3.484-6.857-1.106-13.104-1.843-17.638-2.246-2.267-.218-4.105-.344-5.376-.44-1.271-.09-1.973-.163-1.973-.213.002-.05.709-.07,1.987-.065,1.277.011,3.126.061,5.404.214,4.557.275,10.836.935,17.714,2.044,6.872,1.122,13.034,2.488,17.433,3.701,2.204.589,3.965,1.145,5.174,1.555,1.206.416,1.865.667,1.85.715Z"/>
      <path class="st9" d="M604.794,361.609c-.025.002-.063-.232-.113-.681-.05-.532-.111-1.181-.184-1.967-.153-1.709-.309-4.188-.462-7.252-.31-6.13-.473-14.61-.525-23.97-.054-9.365-.137-17.835-.319-23.962-.097-2.981-.177-5.434-.236-7.257-.022-.79-.039-1.441-.053-1.976-.004-.451.004-.69.03-.693.024,0,.062.233.113.683.05.532.111,1.18.185,1.966.153,1.709.309,4.187.462,7.252.31,6.13.473,14.61.525,23.974.053,9.362.137,17.831.318,23.959.098,2.981.177,5.434.237,7.256.022.79.039,1.442.053,1.976.004.452-.005.691-.03.692Z"/>
      <path class="st9" d="M673.683,364.106c-.002.025-.244.034-.704.03-.541-.013-1.205-.03-2.009-.049-1.849-.064-4.345-.15-7.381-.256-6.233-.214-14.844-.412-24.36-.617-9.519-.204-18.138-.481-24.367-.825-3.115-.171-5.634-.334-7.372-.483-.802-.074-1.463-.135-2.001-.183-.457-.05-.696-.089-.694-.113.002-.024.245-.034.704-.031.539.014,1.203.031,2.009.051,1.849.064,4.344.15,7.38.255,6.232.215,14.845.412,24.364.617,9.516.204,18.133.481,24.363.825,3.115.17,5.634.334,7.373.484.802.074,1.462.133,2.001.183.457.049.695.088.694.113Z"/>
    </g>
    <g>
      <path class="st13" d="M56.771,83.78s-9.402,3.808,1.442,23.768c10.844,19.96,18.253,29.789,18.253,29.789,0,0,1.952,4.648-1.982,5.48-3.934.832-12.674-.331-14.31,4.552-1.697,5.064,2.07,9.702,9.566,13.662,7.496,3.96,23.6,13.239,25.053,14.083,1.427.829,2.891,2.978.302,3.974-2.589.996-22.114,3.547-20.349,12.739,1.765,9.192,24.46,16.793,26.925,17.671,2.465.879,3.075,1.898,2.911,3.243-.164,1.345-6.808,1.584-12.331,2.536-5.524.953-11.761,3.026-10.298,8.244,1.463,5.218,15.066,15.908,47.486,18.24l15.093.097,7.877-12.953c15.167-28.748,13.289-45.947,9.634-49.949-3.655-4.001-8.714.196-12.444,4.38s-7.446,9.696-8.674,9.124c-1.228-.572-1.771-1.629-1.212-4.186.558-2.557,6.11-25.838-.758-32.197-6.868-6.359-19.359,8.863-21.574,10.533-2.215,1.671-3.264-.709-3.213-2.358.052-1.68.694-20.255,1.297-28.711.603-8.456-1.341-14.106-6.536-15.344-5.009-1.194-8.645,6.839-11.431,9.737-2.787,2.899-5.699-1.216-5.699-1.216,0,0-4.423-11.486-15.629-31.246-11.205-19.76-19.585-13.603-19.585-13.603"/>
      <path class="st9" d="M145.407,245.387c-8.172-14.544-22.262-40.638-34.476-62.978-12.209-22.333-23.282-42.542-31.38-57.126-4.049-7.275-7.329-13.169-9.608-17.262-1.126-2.026-2.003-3.605-2.609-4.696-.287-.526-.509-.934-.668-1.227-.148-.278-.213-.426-.213-.426,0,0,.093.132.255.402.169.287.405.688.709,1.204.624,1.081,1.527,2.646,2.686,4.652,2.328,4.043,5.655,9.917,9.738,17.19,8.172,14.544,19.292,34.73,31.501,57.063,12.214,22.34,26.257,48.458,34.355,63.042"/>
      <path class="st9" d="M72.337,149.488c.01-.031.387.066,1.059.266.674.197,1.639.511,2.828.91,2.376.803,5.63,1.995,9.196,3.375,3.512,1.374,6.688,2.617,9.117,3.567,1.097.421,2.024.777,2.768,1.063.655.248,1.013.4,1.003.431-.01.031-.387-.062-1.062-.258-.673-.199-1.639-.513-2.824-.925-2.369-.826-5.606-2.06-9.172-3.441-3.52-1.348-6.704-2.567-9.139-3.5-1.1-.416-2.029-.767-2.775-1.05-.654-.253-1.01-.408-1-.439Z"/>
      <path class="st9" d="M99.314,158.109c-.123-.041,2.039-6.857,4.829-15.222,2.79-8.368,5.151-15.117,5.274-15.075.123.041-2.039,6.856-4.829,15.224-2.79,8.365-5.151,15.115-5.274,15.074Z"/>
      <path class="st9" d="M116.52,193.256c-.026-.019.185-.356.588-.947.462-.668,1.039-1.501,1.723-2.491,1.452-2.105,3.444-5.02,5.525-8.317,2.089-3.293,3.875-6.34,5.151-8.555.601-1.042,1.108-1.92,1.514-2.624.361-.618.574-.953.603-.938.029.015-.13.379-.442,1.024-.312.645-.78,1.569-1.385,2.698-1.203,2.261-2.95,5.342-5.045,8.645-2.087,3.306-4.128,6.2-5.651,8.259-.766,1.026-1.395,1.85-1.846,2.406-.449.559-.709.858-.735.839Z"/>
      <path class="st9" d="M90.403,190.829c.002-.032.369-.034,1.031-.009.761.041,1.695.091,2.797.149,2.36.146,5.617.381,9.213.668,3.597.288,6.85.574,9.203.805,1.097.117,2.027.217,2.785.298.657.081,1.019.141,1.016.173-.003.032-.369.034-1.031.009-.76-.041-1.695-.09-2.796-.149-2.36-.146-5.618-.381-9.214-.668-3.596-.288-6.849-.574-9.202-.805-1.097-.117-2.027-.217-2.785-.298-.657-.081-1.019-.141-1.016-.173Z"/>
      <path class="st9" d="M101.65,223.787c.002-.032.472-.03,1.319.001.934.046,2.139.106,3.585.178,3.026.171,7.203.439,11.815.763,4.613.325,8.787.645,11.806.9,1.442.132,2.643.241,3.574.326.843.087,1.308.151,1.306.183-.002.032-.472.03-1.319-.001-.934-.046-2.139-.106-3.585-.178-3.025-.17-7.203-.438-11.816-.763-4.612-.325-8.785-.645-11.805-.9-1.442-.132-2.643-.241-3.574-.326-.843-.088-1.309-.151-1.306-.184Z"/>
      <path class="st9" d="M134.272,225.858c-.027-.018.229-.451.715-1.218.534-.835,1.231-1.924,2.071-3.237,1.745-2.735,4.142-6.521,6.669-10.775,2.535-4.252,4.727-8.16,6.294-11.001.754-1.364,1.38-2.496,1.859-3.363.442-.793.701-1.224.729-1.209.029.015-.175.475-.568,1.293-.393.819-.979,1.995-1.729,3.436-1.494,2.883-3.645,6.825-6.184,11.084-2.531,4.262-4.976,8.027-6.795,10.717-.913,1.343-1.662,2.423-2.197,3.157-.532.736-.839,1.134-.866,1.116Z"/>
    </g>
  </g>
  <g id="Device">
    <g>
      <g>
        <g>
          <g>
            <path class="st3" d="M584.731,100.587H159.824c-7.326,0-13.263,5.938-13.263,13.263v300.121c0,7.326,5.938,13.264,13.263,13.264h163.079s10.373,32.078-21.784,48.675h152.487s-36.307-12.447-26.972-48.675h158.099c7.324,0,13.263-5.939,13.263-13.263V113.85c0-7.326-5.938-13.263-13.264-13.263Z"/>
            <path class="st10" d="M377.951,394.918c5.78,8.261-3.266,17.307-11.529,11.529-.272-.191-.52-.439-.71-.712-5.764-8.259,3.271-17.294,11.528-11.527.273.19.52.438.711.711Z"/>
          </g>
          <path class="st7" d="M163.574,105.332h417.407c5.352,0,9.697,4.345,9.697,9.697v256.548H153.877V115.029c0-5.352,4.345-9.697,9.697-9.697Z"/>
        </g>
        <path class="st13" d="M163.031,105.332h420.132c4.148,0,7.516,3.368,7.516,7.516v14.607H153.877v-12.969c0-5.052,4.102-9.154,9.154-9.154Z"/>
        <g>
          <circle class="st10" cx="167.787" cy="116.858" r="3.068"/>
          <circle class="st10" cx="176.934" cy="116.858" r="3.068"/>
          <path class="st10" d="M188.701,116.858c0,1.695-1.374,3.068-3.068,3.068s-3.068-1.374-3.068-3.068,1.374-3.068,3.068-3.068,3.068,1.374,3.068,3.068Z"/>
        </g>
      </g>
      <path class="st10" d="M508.765,426.524c0,.141-60.465.255-135.034.255s-135.047-.114-135.047-.255,60.452-.255,135.047-.255,135.034.114,135.034.255Z"/>
    </g>
  </g>
  <g id="_x34_00_Error">
    <g>
      <g>
        <path class="st9" d="M446.612,281.031c5.013,6.141,17.652,17.313,33.133,22.39,28.679,9.404,43.553-5.956,47.794-19.744,7.32-23.177-10.245-39.899-31.817-46.973l-12.435-4.078,5.493-16.75,12.435,4.077c16.242,5.327,39.546,3.693,45.954-15.849,4.328-13.197-.219-27.618-20.776-34.359-13.197-4.327-27.801-2.651-36.571.094l-.51-18.157c10.709-3.515,29.539-4.367,47.305,1.459,32.485,10.652,40.879,34.767,34.305,54.816-5.576,17.004-20.471,28.141-43.187,28.843l-.167.507c18.972,10.718,30.475,31.355,22.901,54.45-8.655,26.394-36.784,42.748-76.376,29.765-18.526-6.075-32.854-17.239-39.228-25.231l11.75-15.261Z"/>
        <g>
          <path class="st0" d="M459.002,269.384c5.013,6.141,17.652,17.313,33.133,22.39,28.679,9.404,43.553-5.956,47.794-19.744,7.32-23.177-10.245-39.899-31.817-46.973l-12.435-4.078,5.493-16.75,12.435,4.077c16.242,5.327,39.546,3.693,45.954-15.849,4.328-13.197-.219-27.618-20.776-34.359-13.197-4.327-27.801-2.651-36.571.094l-.51-18.157c10.709-3.515,29.539-4.367,47.305,1.459,32.485,10.652,40.879,34.767,34.305,54.816-5.576,17.004-20.471,28.141-43.187,28.843l-.167.507c18.972,10.718,30.475,31.355,22.901,54.45-8.655,26.394-36.784,42.748-76.376,29.765-18.526-6.075-32.854-17.239-39.228-25.231l11.75-15.261Z"/>
          <path class="st14" d="M459.002,269.384c5.013,6.141,17.652,17.313,33.133,22.39,28.679,9.404,43.553-5.956,47.794-19.744,7.32-23.177-10.245-39.899-31.817-46.973l-12.435-4.078,5.493-16.75,12.435,4.077c16.242,5.327,39.546,3.693,45.954-15.849,4.328-13.197-.219-27.618-20.776-34.359-13.197-4.327-27.801-2.651-36.571.094l-.51-18.157c10.709-3.515,29.539-4.367,47.305,1.459,32.485,10.652,40.879,34.767,34.305,54.816-5.576,17.004-20.471,28.141-43.187,28.843l-.167.507c18.972,10.718,30.475,31.355,22.901,54.45-8.655,26.394-36.784,42.748-76.376,29.765-18.526-6.075-32.854-17.239-39.228-25.231l11.75-15.261Z"/>
          <g id="Lines">
            <path class="st0" d="M562.107,239.775c.026.12-5.607,1.458-12.582,2.987-6.977,1.53-12.652,2.672-12.678,2.552-.026-.12,5.606-1.458,12.583-2.988,6.974-1.529,12.651-2.672,12.677-2.552Z"/>
            <path class="st0" d="M555.955,232.352c.026.12-5.607,1.458-12.582,2.987-6.977,1.53-12.652,2.672-12.678,2.552-.026-.12,5.606-1.458,12.583-2.988,6.974-1.529,12.651-2.672,12.677-2.552Z"/>
            <path class="st0" d="M545.991,225.02c.026.12-5.607,1.458-12.582,2.987-6.977,1.53-12.652,2.672-12.678,2.552-.026-.12,5.606-1.458,12.583-2.988,6.974-1.529,12.651-2.672,12.677-2.552Z"/>
            <path class="st0" d="M576.657,208.869c.087.21-15.488,3.909-34.782,8.261-19.301,4.353-35.013,7.711-35.1,7.501-.086-.21,15.485-3.908,34.786-8.261,19.294-4.352,35.01-7.71,35.096-7.5Z"/>
            <path class="st0" d="M522.639,210.613c.026.12-5.607,1.458-12.582,2.987-6.977,1.53-12.652,2.672-12.678,2.552-.026-.12,5.606-1.458,12.583-2.988,6.974-1.529,12.651-2.672,12.677-2.552Z"/>
            <path class="st0" d="M524.881,137.388c.014.155-5.148,1.445-11.528,2.882-6.382,1.437-11.566,2.475-11.579,2.32-.014-.155,5.147-1.445,11.53-2.882,6.38-1.436,11.565-2.475,11.578-2.32Z"/>
            <path class="st0" d="M566.187,249.134c.026.12-5.607,1.458-12.582,2.987-6.977,1.53-12.652,2.672-12.678,2.552-.026-.12,5.606-1.458,12.583-2.988,6.974-1.529,12.651-2.672,12.677-2.552Z"/>
            <path class="st0" d="M566.823,258.575c.026.12-5.607,1.458-12.582,2.987-6.977,1.53-12.652,2.672-12.678,2.552-.026-.12,5.606-1.458,12.583-2.988,6.974-1.529,12.651-2.672,12.677-2.552Z"/>
            <path class="st0" d="M564.676,268.082c.026.12-5.607,1.458-12.582,2.987-6.977,1.53-12.652,2.672-12.678,2.552-.026-.12,5.606-1.458,12.583-2.988,6.974-1.529,12.651-2.672,12.677-2.552Z"/>
            <path class="st0" d="M563.395,278.599c.033.15-7.007,1.822-15.723,3.733-8.719,1.912-15.811,3.34-15.844,3.189-.033-.15,7.006-1.821,15.724-3.733,8.716-1.911,15.809-3.339,15.842-3.189Z"/>
            <path class="st0" d="M559.49,288.064c.098.136-18.795,4.066-42.193,8.778-23.406,4.714-42.454,8.424-42.553,8.288-.098-.136,18.791-4.065,42.197-8.779,23.398-4.712,42.45-8.423,42.548-8.287Z"/>
            <path class="st0" d="M474.163,280.72c.026.12-5.607,1.458-12.582,2.987-6.977,1.53-12.652,2.672-12.678,2.552-.026-.12,5.606-1.458,12.583-2.988,6.974-1.529,12.651-2.672,12.677-2.552Z"/>
            <path class="st0" d="M481.417,287.449c.026.12-5.607,1.458-12.582,2.987-6.977,1.53-12.652,2.672-12.678,2.552-.026-.12,5.606-1.458,12.583-2.988,6.974-1.529,12.651-2.672,12.677-2.552Z"/>
            <path class="st0" d="M494.645,292.564c.031.156-6.448,1.872-14.468,3.832-8.023,1.961-14.55,3.423-14.581,3.267-.031-.156,6.446-1.871,14.47-3.832,8.021-1.96,14.549-3.423,14.58-3.267Z"/>
            <path class="st0" d="M554.392,296.262c.08.185-14.779,3.491-33.184,7.384-18.412,3.894-33.398,6.901-33.478,6.716-.08-.184,14.776-3.49,33.188-7.385,18.406-3.893,33.395-6.9,33.475-6.716Z"/>
            <path class="st0" d="M545.381,304.542c.048.175-9.281,2.388-20.833,4.942-11.556,2.555-20.96,4.485-21.007,4.31-.047-.175,9.279-2.387,20.835-4.942,11.552-2.555,20.958-4.484,21.005-4.31Z"/>
            <path class="st0" d="M544.115,139.977c.055.152-9.329,2.664-20.957,5.61-11.633,2.947-21.104,5.212-21.16,5.06-.055-.152,9.327-2.663,20.96-5.61,11.629-2.946,21.102-5.211,21.158-5.059Z"/>
            <path class="st0" d="M556.438,144.288c.059.173-9.674,2.925-21.735,6.148-12.066,3.224-21.892,5.697-21.951,5.524-.059-.172,9.672-2.925,21.737-6.148,12.062-3.223,21.89-5.696,21.948-5.524Z"/>
            <path class="st0" d="M566.39,149.666c.031.177-6.351,2.102-14.252,4.298-7.904,2.197-14.335,3.834-14.366,3.657-.031-.177,6.35-2.101,14.254-4.298,7.901-2.196,14.333-3.833,14.364-3.656Z"/>
            <path class="st0" d="M574.945,156.628c.033.118-5.604,1.76-12.59,3.668-6.988,1.908-12.678,3.359-12.711,3.241-.033-.118,5.603-1.76,12.591-3.668,6.986-1.907,12.677-3.358,12.71-3.24Z"/>
            <path class="st0" d="M583.248,164.413c.033.118-5.604,1.76-12.59,3.668-6.988,1.908-12.678,3.359-12.711,3.241-.033-.118,5.603-1.76,12.591-3.668,6.986-1.907,12.677-3.358,12.71-3.24Z"/>
            <path class="st0" d="M586.226,175.47c.033.118-5.604,1.76-12.59,3.668-6.988,1.908-12.678,3.359-12.711,3.241-.033-.118,5.603-1.76,12.591-3.668,6.986-1.907,12.677-3.358,12.71-3.24Z"/>
            <path class="st0" d="M585.084,186.624c.033.118-5.604,1.76-12.59,3.668-6.988,1.908-12.678,3.359-12.711,3.241-.033-.118,5.603-1.76,12.591-3.668,6.986-1.907,12.677-3.358,12.71-3.24Z"/>
            <path class="st0" d="M582.793,197.81c.034.137-7.004,1.764-15.718,3.634-8.718,1.871-15.81,3.275-15.844,3.138-.034-.137,7.003-1.764,15.72-3.635,8.715-1.87,15.809-3.275,15.843-3.138Z"/>
          </g>
          <path class="st0" d="M476.136,264.452c5.013,6.141,17.652,17.313,33.133,22.39,28.679,9.404,43.553-5.956,47.794-19.744,7.32-23.177-10.245-39.899-31.817-46.973l-12.435-4.078,5.493-16.75,12.435,4.077c16.242,5.327,39.546,3.693,45.954-15.849,4.328-13.197-.219-27.618-20.776-34.359-13.197-4.327-27.801-2.651-36.571.094l-.51-18.157c10.709-3.515,29.539-4.367,47.305,1.459,32.485,10.652,40.879,34.767,34.305,54.816-5.576,17.004-20.471,28.141-43.187,28.843l-.167.507c18.972,10.718,30.475,31.355,22.901,54.45-8.655,26.394-36.784,42.748-76.376,29.765-18.526-6.075-32.854-17.239-39.228-25.231l11.75-15.261Z"/>
        </g>
        <path class="st9" d="M269.473,247.618l22.372-1.739,1.843,23.708-22.372,1.739,3.062,39.392-29.422,2.287-3.062-39.392-61.642,4.791.053-26.036,49.919-116.308,30.394-2.362,8.855,113.92ZM192.513,253.6l47.538-3.695-5.585-71.854-.749-.186-2.025,5.417-39.18,70.318Z"/>
        <g>
          <path class="st0" d="M255.768,236.143l22.371-1.738,1.843,23.708-22.371,1.738,3.062,39.393-29.423,2.287-3.062-39.392-75.988,5.906-2.13-17.966,66.448-125.493,30.395-2.363,8.855,113.92ZM178.808,242.125l47.537-3.695-5.585-71.854-.749-.187-2.025,5.417-39.179,70.318Z"/>
          <g class="st8">
            <path d="M255.768,236.143l22.371-1.738,1.843,23.708-22.371,1.738,3.062,39.393-29.423,2.287-3.062-39.392-75.988,5.906-2.13-17.966,66.448-125.493,30.395-2.363,8.855,113.92ZM178.808,242.125l47.537-3.695-5.585-71.854-.749-.187-2.025,5.417-39.179,70.318Z"/>
          </g>
          <path class="st0" d="M236.289,237.57l22.372-1.739,1.843,23.708-22.372,1.739,3.062,39.392-29.422,2.287-3.062-39.392-75.988,5.906-2.13-17.966,66.448-125.494,30.394-2.362,8.855,113.92ZM159.329,243.552l47.538-3.695-5.585-71.854-.749-.186-2.025,5.417-39.18,70.318Z"/>
          <g>
            <path class="st0" d="M188.031,226.623c.01.022-.327.212-.944.538-.617.324-1.517.78-2.634,1.329-2.234,1.099-5.341,2.568-8.791,4.143-3.452,1.573-6.594,2.956-8.882,3.92-1.144.483-2.074.862-2.72,1.114-.647.251-1.008.379-1.016.356-.008-.022.337-.193.969-.482.683-.31,1.587-.72,2.679-1.216,2.311-1.049,5.412-2.456,8.841-4.012,3.422-1.569,6.519-2.99,8.826-4.048,1.091-.5,1.993-.914,2.675-1.227.633-.288.987-.436.997-.414Z"/>
            <path class="st0" d="M198.616,207.462c.008.022-.334.207-.961.522-.628.314-1.541.754-2.675,1.283-2.267,1.061-5.418,2.475-8.914,3.99-3.498,1.513-6.68,2.84-8.996,3.763-1.157.463-2.098.825-2.751,1.065-.654.239-1.018.36-1.026.338-.007-.023.344-.187.984-.466.689-.297,1.605-.691,2.715-1.169,2.338-1.007,5.483-2.36,8.959-3.857,3.47-1.51,6.61-2.877,8.945-3.893,1.108-.482,2.023-.881,2.711-1.18.641-.277,1-.419,1.008-.397Z"/>
            <path class="st0" d="M254.223,224.326c.012.021-.233.185-.687.463-.453.278-1.116.669-1.941,1.143-1.649.947-3.947,2.219-6.518,3.565-2.571,1.346-4.927,2.511-6.644,3.326-.859.408-1.557.73-2.044.944-.487.214-.761.323-.771.301-.011-.022.243-.171.712-.423.535-.28,1.202-.629,1.994-1.043,1.754-.909,4.051-2.099,6.592-3.414,2.528-1.338,4.814-2.548,6.56-3.472.792-.415,1.459-.765,1.994-1.045.474-.241.741-.365.753-.344Z"/>
            <path class="st0" d="M278.096,237.668c.012.021-.233.185-.687.463-.453.279-1.116.669-1.941,1.143-1.649.947-3.947,2.219-6.518,3.565-2.571,1.346-4.927,2.511-6.644,3.326-.859.408-1.557.73-2.044.944-.487.214-.761.323-.772.301-.01-.022.244-.171.712-.423.535-.28,1.202-.629,1.994-1.043,1.754-.909,4.051-2.099,6.592-3.414,2.528-1.338,4.814-2.548,6.56-3.472.792-.415,1.459-.765,1.994-1.045.474-.242.741-.365.753-.344Z"/>
            <path class="st0" d="M279.126,249.596c.012.021-.233.185-.687.463-.453.279-1.116.669-1.941,1.143-1.649.947-3.947,2.219-6.518,3.565-2.571,1.346-4.927,2.511-6.644,3.326-.859.408-1.557.73-2.044.944-.487.214-.761.323-.771.301-.011-.022.243-.171.712-.423.535-.28,1.202-.629,1.994-1.043,1.754-.909,4.051-2.099,6.592-3.414,2.528-1.338,4.814-2.548,6.56-3.472.792-.415,1.459-.765,1.994-1.045.474-.242.741-.365.753-.344Z"/>
            <path class="st0" d="M257.554,260.258c.012.021-.224.184-.663.46-.438.277-1.079.665-1.876,1.136-1.595.941-3.819,2.206-6.307,3.544-2.49,1.338-4.771,2.496-6.436,3.307-.832.405-1.509.726-1.982.939-.472.213-.738.321-.749.299-.011-.022.235-.17.688-.421.52-.279,1.166-.626,1.931-1.037,1.702-.905,3.924-2.087,6.382-3.395,2.445-1.329,4.657-2.531,6.35-3.451.765-.411,1.41-.759,1.93-1.039.459-.24.718-.363.73-.342Z"/>
            <path class="st0" d="M258.502,273.138c.012.021-.224.184-.663.46-.438.277-1.079.665-1.876,1.135-1.595.941-3.819,2.206-6.307,3.544-2.49,1.338-4.771,2.496-6.436,3.307-.832.405-1.509.726-1.982.939-.472.213-.738.321-.749.299-.011-.022.235-.17.688-.421.52-.279,1.166-.626,1.931-1.037,1.702-.905,3.924-2.087,6.382-3.394,2.445-1.329,4.657-2.531,6.35-3.451.765-.411,1.41-.759,1.93-1.038.459-.24.718-.363.73-.342Z"/>
            <path class="st0" d="M259.451,286.019c.012.021-.224.184-.663.46-.438.277-1.079.665-1.876,1.136-1.595.941-3.819,2.206-6.307,3.544-2.49,1.338-4.771,2.496-6.436,3.307-.832.405-1.509.726-1.982.939-.472.213-.738.321-.749.299-.011-.022.235-.17.688-.421.52-.279,1.166-.626,1.931-1.037,1.702-.905,3.924-2.087,6.382-3.395,2.445-1.329,4.657-2.531,6.35-3.451.765-.411,1.41-.759,1.93-1.039.459-.24.718-.363.73-.342Z"/>
            <path class="st0" d="M253.241,210.717c.012.021-.233.185-.687.463-.453.279-1.116.669-1.941,1.143-1.649.947-3.947,2.219-6.518,3.565-2.571,1.346-4.927,2.511-6.644,3.326-.859.408-1.557.73-2.044.944-.487.214-.761.323-.772.301-.01-.022.244-.171.712-.423.535-.28,1.202-.629,1.994-1.043,1.754-.909,4.051-2.099,6.592-3.414,2.528-1.338,4.814-2.548,6.56-3.472.792-.415,1.459-.765,1.994-1.045.474-.242.741-.365.753-.344Z"/>
            <path class="st0" d="M252.26,197.107c.012.021-.233.185-.687.463-.453.278-1.116.669-1.941,1.143-1.649.947-3.947,2.219-6.518,3.565-2.571,1.346-4.927,2.511-6.644,3.326-.859.408-1.557.73-2.044.944-.487.214-.761.323-.772.301-.01-.022.244-.171.712-.423.535-.28,1.202-.629,1.994-1.043,1.754-.909,4.051-2.099,6.592-3.414,2.528-1.338,4.814-2.548,6.56-3.472.792-.415,1.459-.765,1.994-1.045.474-.241.741-.365.753-.344Z"/>
            <path class="st0" d="M250.767,181.23c.012.021-.221.178-.653.444-.431.266-1.062.639-1.847,1.092-1.569.905-3.757,2.121-6.205,3.404-2.45,1.282-4.696,2.387-6.334,3.162-.819.387-1.485.693-1.949.896-.464.203-.726.305-.736.284-.01-.022.231-.165.677-.406.514-.269,1.149-.602,1.9-.995,1.678-.868,3.864-1.999,6.281-3.25,2.404-1.274,4.579-2.426,6.248-3.311.751-.393,1.386-.726,1.9-.995.452-.229.707-.346.719-.325Z"/>
            <path class="st0" d="M249.893,164.66c.012.021-.221.178-.653.444-.431.266-1.062.639-1.847,1.092-1.569.905-3.757,2.121-6.205,3.404-2.45,1.282-4.696,2.387-6.334,3.161-.819.387-1.485.693-1.949.896-.464.203-.726.305-.736.284-.011-.022.231-.165.677-.406.514-.269,1.149-.602,1.9-.995,1.678-.868,3.864-1.999,6.281-3.25,2.404-1.274,4.579-2.426,6.248-3.311.751-.393,1.386-.726,1.9-.995.452-.229.707-.346.719-.325Z"/>
            <path class="st0" d="M248.789,147.674c.014.02-.23.191-.683.482-.452.291-1.115.701-1.939,1.2-1.648.996-3.947,2.34-6.524,3.766-2.578,1.425-4.945,2.661-6.672,3.531-.864.435-1.566.779-2.057,1.009-.49.23-.767.348-.779.327-.012-.021.241-.179.71-.445.541-.299,1.209-.669,1.999-1.106,1.766-.966,4.067-2.224,6.612-3.616,2.53-1.414,4.818-2.693,6.574-3.675.79-.437,1.459-.806,1.999-1.105.476-.256.745-.387.759-.367Z"/>
            <path class="st0" d="M248.146,131.519c.013.021-.241.18-.712.45-.47.27-1.158.649-2.012,1.108-1.71.918-4.093,2.154-6.76,3.458-2.668,1.304-5.114,2.428-6.897,3.217-.892.394-1.617.706-2.122.913-.505.207-.79.312-.801.29s.252-.167.738-.412c.56-.274,1.251-.612,2.069-1.011,1.827-.883,4.208-2.033,6.841-3.304,2.619-1.295,4.987-2.466,6.805-3.365.818-.4,1.509-.738,2.069-1.011.492-.233.77-.352.783-.331Z"/>
            <path class="st0" d="M203.467,189.845c.055.112-4.409,2.439-9.97,5.198-5.563,2.76-10.116,4.906-10.171,4.795-.055-.111,4.408-2.438,9.971-5.198,5.561-2.759,10.115-4.905,10.17-4.794Z"/>
            <path class="st0" d="M201.741,175.995c.066.1-1.372,1.154-3.334,2.133-1.96.985-3.665,1.506-3.705,1.393-.045-.121,1.569-.823,3.504-1.796,1.937-.966,3.466-1.839,3.536-1.73Z"/>
          </g>
        </g>
      </g>
      <g>
        <path class="st9" d="M297.23,250.617c6.65,14.671,13.814,24.271,29.471,37.398,18.977,15.911,46.315,21.091,69.947,13.688,23.632-7.403,45.593-27.304,52.284-51.147"/>
        <circle class="st0" cx="373.044" cy="207.916" r="87.035"/>
        <path class="st5" d="M346.09,125.44c-2.843,2.279,1.256,6.936,4.049,9.276,2.793,2.34,6.106,5.129,5.734,8.754-8.896,1.534-18.114,3.197-25.511,8.371-10.949,7.659-15.641,21.235-21.419,33.284-3.524,7.348-7.664,14.402-10.857,21.899-3.194,7.497-5.44,15.589-4.902,23.721s4.178,16.325,10.849,21.004c6.672,4.679,16.511,5.044,22.714-.241.206,2.289.413,4.577.619,6.866l-2.048,22.331,50.554,3.658,5.787-151.759v-11.3s-29.803-.487-35.569,4.136Z"/>
      </g>
      <g>
        <g>
          <path class="st3" d="M449.261,208.206c-3.6-2.043-7.796-2.469-11.934-2.379-4.138.09-8.216,1.019-12.176,2.225-3.346,1.019-6.66,2.253-9.601,4.146l.412,1.171c11.007,2.905,23.076,1.575,33.188-3.656.288-.149,1.134-.504,1.066-.822-.043-.204-.774-.582-.955-.684Z"/>
          <path class="st3" d="M304.337,210.841c-.842,1.382-.395,3.297.325,4.746s1.93,2.591,3.177,3.622c3.816,3.155,8.418,5.632,13.363,5.878,4.945.246,10.211-2.135,12.381-6.586.531-1.089,1.509-2.766,1.509-2.766-.739-.557-2.973-1.561-3.793-1.878-4.448-1.719-8.635-3.68-13.328-4.523s-9.235-.331-13.635,1.507"/>
          <path class="st15" d="M432.386,157.61c-2.738-3.003-36.171-15.904-36.171-15.904l-31.729,2.231s-15.466,4.014-27.077,8.225c-7.091,2.571-12.76,8.019-15.567,15.019l-17.505,43.659s2.58-1.463,10.034-1.356c7.658.11,20.721,6.25,20.721,6.25l-8.318,65.737c25.574,17.225,56.329,18.772,86.126,3.836l.174-9.374,3.202-62.841c3.32-4.508,21.372-10.375,33.939-4.202,0,0-12.151-45.052-17.83-51.281Z"/>
          <path class="st3" d="M413.375,172.966c-.03-.008.018-.285.131-.783.105-.5.324-1.208.65-2.062.647-1.708,1.864-3.971,3.719-6.075,1.863-2.098,3.961-3.583,5.577-4.433.808-.428,1.484-.731,1.967-.897.48-.174.75-.255.761-.226.031.076-1.019.486-2.572,1.4-1.553.908-3.572,2.4-5.396,4.454-1.816,2.061-3.05,4.246-3.762,5.898-.718,1.653-.997,2.745-1.076,2.724Z"/>
          <path class="st3" d="M413.464,212.39c-.124,0-.256-8.154-.294-18.211-.038-10.061.032-18.214.156-18.214.124,0,.256,8.152.294,18.213.038,10.057-.032,18.212-.156,18.213Z"/>
          <path class="st3" d="M339.163,177.043c.124.013-.7,8.558-1.838,19.082-1.139,10.528-2.163,19.048-2.286,19.035s.699-8.556,1.839-19.083c1.139-10.524,2.163-19.046,2.286-19.033Z"/>
          <path class="st3" d="M400.521,143.453c.015,0,.026.217.033.633.021.416-.008,1.028-.072,1.817-.141,1.57-.592,3.85-1.761,6.439-1.189,2.56-3.152,5.433-6.143,7.733-2.962,2.322-6.999,3.856-11.336,4.08-4.34.197-8.507-.94-11.68-2.966-3.2-2.001-5.431-4.671-6.862-7.104-1.414-2.464-2.082-4.689-2.374-6.238-.14-.778-.227-1.385-.247-1.801-.034-.414-.044-.631-.029-.633.056-.006.101.868.447,2.397.342,1.525,1.049,3.706,2.477,6.112,1.444,2.376,3.662,4.975,6.806,6.914,3.115,1.962,7.19,3.061,11.439,2.869,4.247-.22,8.195-1.707,11.106-3.96,2.942-2.233,4.899-5.034,6.107-7.538,1.189-2.533,1.682-4.773,1.875-6.323.197-1.555.157-2.43.214-2.429Z"/>
          <path class="st2" d="M335.567,201.102c-.013.028-.35-.091-.946-.331-.595-.244-1.459-.586-2.532-.994-2.144-.818-5.148-1.838-8.543-2.683-3.398-.84-6.531-1.341-8.808-1.62-1.139-.141-2.063-.242-2.702-.304-.639-.067-.993-.118-.991-.149.002-.031.358-.039,1.003-.026.645.009,1.576.062,2.725.163,2.297.199,5.461.654,8.883,1.499,3.419.851,6.429,1.927,8.553,2.824,1.063.448,1.911.836,2.485,1.13.576.29.888.463.875.491Z"/>
          <path class="st2" d="M412.94,197.604c-.004.124-16.974-.308-37.898-.966-20.932-.658-37.891-1.292-37.888-1.417s16.97.308,37.902.966c20.924.658,37.888,1.292,37.884,1.416Z"/>
          <path class="st2" d="M442.975,185.922c-.003.031-.427.027-1.189-.007-.761-.042-1.865-.067-3.226-.058-2.721.012-6.486.286-10.545,1.163-4.058.888-7.598,2.202-10.078,3.32-1.242.557-2.235,1.038-2.91,1.392-.679.347-1.063.527-1.079.5-.016-.027.339-.258.994-.654.651-.403,1.628-.93,2.861-1.528,2.462-1.2,6.02-2.576,10.117-3.472,4.097-.885,7.905-1.111,10.643-1.041,1.37.032,2.477.106,3.237.202.761.088,1.179.151,1.176.182Z"/>
          <path class="st2" d="M338.985,173.656c-.048.06-.888-.599-2.344-1.501-1.453-.903-3.56-2-6.035-2.827-2.479-.819-4.824-1.2-6.529-1.345-1.706-.149-2.773-.123-2.776-.199-.001-.031.264-.066.747-.102.483-.042,1.184-.051,2.05-.017,1.731.065,4.128.402,6.649,1.236,2.518.84,4.641,2.004,6.067,2.987.715.49,1.272.917,1.633,1.24.365.318.557.504.538.528Z"/>
          <path class="st2" d="M407.668,172.174c-.001.015-.225.011-.648-.012-.467-.031-1.082-.072-1.851-.123-1.656-.12-3.968-.287-6.804-.492-5.745-.406-13.686-.897-22.466-1.245-8.783-.344-16.739-.479-22.498-.526-2.843-.019-5.161-.034-6.821-.045-.771-.01-1.387-.017-1.855-.023-.424-.01-.647-.023-.647-.039,0-.016.222-.033.646-.052.468-.016,1.084-.036,1.854-.062,1.611-.047,3.942-.082,6.823-.098,5.762-.035,13.726.05,22.515.395,8.786.348,16.731.89,22.473,1.378,2.871.243,5.193.462,6.795.635.766.086,1.379.155,1.844.207.421.052.642.087.64.103Z"/>
          <path class="st2" d="M359.348,151.398c-.008.124-3.374.003-7.516-.269-4.144-.273-7.495-.595-7.487-.719.008-.124,3.373-.003,7.517.27,4.142.273,7.495.595,7.486.719Z"/>
          <path class="st2" d="M419.055,150.489c0,.124-4.352.225-9.718.225s-9.72-.101-9.72-.225,4.351-.225,9.72-.225,9.718.101,9.718.225Z"/>
          <path class="st2" d="M414.053,229.632c0,.008-.07.015-.206.021-.163.004-.362.01-.605.016-.569.005-1.345.011-2.325.019-2.019.011-4.941-.012-8.551-.073-7.22-.12-17.193-.455-28.189-1.153-11-.704-20.936-1.638-28.112-2.435-3.589-.397-6.489-.746-8.491-1.013-.971-.132-1.739-.237-2.304-.314-.24-.037-.436-.068-.598-.093-.134-.023-.203-.039-.202-.047s.071-.007.207.001c.163.013.361.029.603.049.566.056,1.338.133,2.313.23,2.048.21,4.943.506,8.503.87,7.182.716,17.115,1.599,28.108,2.302,10.989.698,20.953,1.082,28.168,1.284,3.578.09,6.487.164,8.546.216.979.027,1.755.049,2.324.065.243.011.441.021.604.028.136.009.206.017.206.025Z"/>
          <path class="st2" d="M414.641,257.546c.001.008-.07.028-.211.062-.167.037-.374.082-.628.137-.59.118-1.4.28-2.426.485-1.053.213-2.345.456-3.854.684-1.508.234-3.22.54-5.129.761-1.905.252-3.993.518-6.244.712-2.247.247-4.658.386-7.193.557-5.075.262-10.665.364-16.528.169-5.864-.225-11.434-.727-16.477-1.352-2.517-.352-4.912-.663-7.135-1.07-2.232-.355-4.296-.77-6.178-1.157-1.888-.357-3.574-.785-5.061-1.126-1.489-.335-2.76-.669-3.795-.957-1.008-.278-1.805-.497-2.385-.657-.25-.074-.452-.133-.617-.182-.138-.043-.208-.069-.206-.077.002-.008.076.004.218.032.167.037.374.082.628.139.585.14,1.388.332,2.404.575,1.041.262,2.316.571,3.809.882,1.491.318,3.178.723,5.067,1.059,1.883.367,3.946.762,6.176,1.101,2.222.391,4.613.687,7.126,1.027,5.035.601,10.592,1.089,16.442,1.314,5.848.194,11.425.105,16.49-.134,2.53-.159,4.937-.284,7.181-.514,2.249-.178,4.335-.425,6.239-.656,1.908-.2,3.621-.484,5.13-.694,1.511-.203,2.805-.421,3.862-.607,1.031-.17,1.846-.304,2.439-.402.258-.038.467-.068.637-.093.144-.019.218-.024.22-.017Z"/>
          <path class="st2" d="M412.973,281.396c.002.007-.069.035-.21.081-.167.051-.375.115-.631.194-.592.171-1.407.407-2.44.705-.532.146-1.119.328-1.77.489-.658.146-1.369.304-2.132.474-.767.169-1.586.35-2.452.541-.871.178-1.801.311-2.773.481-.974.157-1.991.345-3.057.498-1.07.128-2.183.26-3.334.397-.576.068-1.162.138-1.758.208-.598.046-1.205.092-1.821.139-1.233.092-2.502.186-3.803.282-5.213.24-10.956.254-16.969-.095-6.012-.398-11.709-1.129-16.856-1.99-1.28-.249-2.529-.492-3.743-.728-.606-.12-1.204-.238-1.792-.355-.583-.137-1.158-.273-1.723-.406-1.129-.267-2.219-.524-3.268-.772-1.037-.287-2.033-.563-2.985-.827-7.597-2.156-12.055-4.181-12.055-4.181.003-.007.077.012.219.057.166.056.372.125.626.21.58.206,1.379.489,2.391.848.519.183,1.091.403,1.726.615.642.2,1.336.417,2.081.65.747.235,1.545.485,2.389.751.848.258,1.759.481,2.708.743.952.254,1.947.52,2.984.797,1.048.239,2.138.487,3.265.745.564.129,1.138.26,1.721.393.587.113,1.184.227,1.789.343,1.212.229,2.458.465,3.736.707,5.137.837,10.818,1.552,16.813,1.95,5.996.348,11.721.346,16.92.13,1.297-.09,2.563-.178,3.792-.263.615-.043,1.22-.086,1.817-.128.594-.066,1.179-.132,1.753-.196,1.149-.128,2.26-.251,3.328-.37,1.064-.144,2.08-.32,3.053-.467.971-.159,1.901-.281,2.771-.448.867-.179,1.685-.347,2.453-.505.764-.156,1.477-.302,2.135-.436.653-.148,1.242-.317,1.776-.45,1.041-.263,1.863-.472,2.459-.623.261-.061.473-.111.643-.151.146-.032.221-.044.224-.037Z"/>
          <path class="st11" d="M330.822,247.964c14.303-2.801,27.86-9.325,38.973-18.755,1.971-1.673,4.098-3.532,6.682-3.618,2.915-.097,5.336,2.075,7.552,3.971,8.75,7.488,19.479,12.641,30.794,14.789,1.641-2.558.928-6.083-.886-8.52-1.815-2.438-4.515-4.032-7.141-5.561-8.181-4.764-16.361-9.528-24.542-14.292-1.863-1.085-3.922-2.21-6.05-1.869-1.411.225-2.634,1.07-3.802,1.892-12.783,8.991-25.567,17.983-38.35,26.974-1.682,1.183-3.572,3.24-2.471,4.977"/>
        </g>
        <g>
          <path class="st12" d="M306.756,210.348s-5.744,17.098-6.562,20.056c-1.583,5.728-.101,20.661,13.84,20.66,16.899,0,78.562-39.797,78.562-39.797l-12.6-7.589-49.993,16.316,1.918-5.649s-13.863-7.16-25.166-3.997Z"/>
          <path class="st12" d="M380.263,204.264s16.49-21.446,16.49-21.728,9.782-8.654,9.782-8.654c0,0,2.163.094,1.975,1.505-.188,1.411-3.668,6.396-3.668,6.396,0,0-.357,1.149-1.692,3.124-.972,1.437-5.832,9.951-5.832,9.951,0,0,4.609-4.421,5.456-3.951.847.47,1.505,1.035,1.035,2.446s-4.797,5.738-4.797,5.738c0,0-2.54,8.936-5.361,11.476l-7.055,4.703-6.331-11.005Z"/>
          <path class="st6" d="M395.609,198.587c.056-.035.227,1.158-.72,2.657-.447.747-1.139,1.509-1.829,2.375-.707.856-1.26,1.923-1.666,3.143-.416,1.212-.723,2.416-1.152,3.475-.426,1.061-.982,1.951-1.577,2.589-.589.645-1.216,1.014-1.664,1.193-.456.172-.727.188-.731.167-.041-.079,1.08-.274,2.156-1.57.535-.631,1.039-1.498,1.429-2.529.395-1.033.689-2.231,1.113-3.47.409-1.24,1.022-2.393,1.768-3.256.726-.874,1.424-1.594,1.885-2.288.971-1.384.919-2.499.988-2.485Z"/>
          <path class="st6" d="M404.858,182.313c-.034.025-.165-.197-.525-.436-.353-.237-.976-.447-1.738-.344-.764.079-1.577.567-2.285,1.318-.707.749-1.374,1.719-2.131,2.68-1.493,1.941-2.864,3.683-3.874,4.93-1.01,1.247-1.66,1.999-1.709,1.961-.049-.038.511-.859,1.457-2.155s2.277-3.069,3.77-5.01c.757-.96,1.424-1.915,2.191-2.696.756-.774,1.693-1.301,2.549-1.344.846-.072,1.522.215,1.875.52.36.309.438.571.42.577Z"/>
          <path class="st6" d="M395.736,203.618c-.125-.046.516-1.954.981-4.377.478-2.422.6-4.43.733-4.426.115-.002.195,2.045-.291,4.512-.475,2.469-1.318,4.337-1.424,4.291Z"/>
          <path class="st12" d="M443.685,206.768s6.053,17.336,6.878,20.292c1.271,4.558.101,20.661-13.84,20.66-16.898,0-78.562-39.797-78.562-39.797l11.644-7.9,50.948,16.627-1.973-5.81s10.517-6.307,24.905-4.073Z"/>
          <path class="st12" d="M370.494,200.919s-16.49-21.446-16.49-21.728-9.782-8.654-9.782-8.654c0,0-2.163.094-1.975,1.505.188,1.411,3.668,6.396,3.668,6.396,0,0,.357,1.149,1.692,3.124.972,1.437,5.832,9.951,5.832,9.951,0,0-4.609-4.421-5.456-3.951-.847.47-1.505,1.035-1.035,2.446.47,1.411,4.797,5.738,4.797,5.738,0,0,2.54,8.936,5.362,11.476l7.055,4.703,6.331-11.005Z"/>
          <path class="st6" d="M355.147,195.243c.069-.014.017,1.101.988,2.485.461.694,1.159,1.414,1.885,2.288.747.863,1.359,2.016,1.768,3.255.424,1.24.718,2.438,1.113,3.47.39,1.031.894,1.898,1.429,2.529,1.077,1.296,2.198,1.491,2.156,1.57-.004.022-.275.006-.731-.167-.448-.179-1.075-.547-1.664-1.193-.595-.638-1.151-1.528-1.577-2.589-.429-1.059-.737-2.262-1.152-3.475-.406-1.22-.959-2.287-1.666-3.143-.69-.867-1.382-1.628-1.829-2.375-.947-1.499-.776-2.692-.72-2.657Z"/>
          <path class="st6" d="M345.899,178.969c-.018-.006.061-.268.42-.577.353-.305,1.029-.591,1.875-.52.855.043,1.792.57,2.549,1.344.767.781,1.434,1.735,2.191,2.695,1.493,1.941,2.824,3.714,3.77,5.01.946,1.297,1.506,2.117,1.457,2.155-.049.038-.699-.714-1.709-1.961-1.01-1.247-2.381-2.989-3.874-4.93-.757-.961-1.424-1.931-2.131-2.68-.708-.75-1.521-1.239-2.285-1.318-.762-.103-1.385.108-1.738.344-.359.239-.49.461-.525.436Z"/>
          <path class="st6" d="M355.021,200.273c-.106.046-.949-1.823-1.424-4.291-.486-2.467-.406-4.515-.291-4.512.133-.004.255,2.004.733,4.426.466,2.424,1.107,4.331.982,4.377Z"/>
          <path class="st6" d="M384.889,224.246c-.065.106-6.338-3.62-14.009-8.32-7.674-4.702-13.84-8.599-13.775-8.705.065-.106,6.337,3.619,14.011,8.321,7.671,4.701,13.839,8.599,13.774,8.705Z"/>
          <path class="st6" d="M421.795,217.147c-.005.015-.192-.029-.543-.127-.395-.116-.903-.265-1.531-.449-1.377-.426-3.278-1.014-5.604-1.734-4.725-1.485-11.242-3.57-18.425-5.918-7.186-2.348-13.676-4.519-18.358-6.138-2.341-.808-4.229-1.482-5.529-1.961-.611-.234-1.105-.423-1.49-.57-.339-.135-.514-.213-.509-.227.005-.015.191.035.54.142.392.126.895.289,1.518.49,1.37.449,3.26,1.068,5.573,1.825,4.755,1.554,11.235,3.672,18.396,6.012,7.155,2.352,13.631,4.481,18.383,6.043,2.307.776,4.194,1.411,5.56,1.87.617.217,1.116.393,1.505.529.343.126.52.199.515.214Z"/>
        </g>
        <g>
          <path class="st12" d="M374.53,68.172h0c-12.95,0-23.573,10.266-24.002,23.209-.383,11.563-.658,24.323-.29,30.497.764,12.807,13.676,14.193,13.676,14.193l-.009,7.84c-.01,9.145,7.4,16.564,16.545,16.564h0c9.012,0,16.367-7.213,16.542-16.224l.999-51.419c.518-13.36-10.093-24.513-23.462-24.661Z"/>
          <path class="st6" d="M363.9,136.104s8.13.276,16.482-5.538c0,0-3.64,9.549-16.482,9v-3.462Z"/>
          <path class="st3" d="M372.685,93.868c.308.48,2.172-.201,4.489-.438,2.313-.284,4.282-.034,4.475-.57.083-.255-.345-.675-1.195-1.015-.843-.341-2.115-.559-3.503-.404-1.388.158-2.58.652-3.326,1.172-.753.521-1.077,1.026-.94,1.255Z"/>
          <path class="st3" d="M353.788,93.8c.251.527,1.788.445,3.503.866,1.728.365,3.081,1.108,3.531.741.203-.182.088-.676-.439-1.25-.517-.57-1.473-1.174-2.656-1.445-1.183-.269-2.303-.14-3.012.15-.719.289-1.033.684-.928.937Z"/>
          <path class="st3" d="M373.206,115.591c-.121.593-1.084-2.331-1.414-2.93-1.48-2.959-2.519-5.698-5.258-2.323-1.677,1.808-2.939,6.31-3.558,9.832-.033-.077-.3,1.8-.489,1.541-.158-.177-.192-.484-.024-2.152.67-4.199,1.917-8.55,3.956-10.751,2.041-2.173,4-.643,5.181,1.57,1.209,2.22,1.714,4.753,1.607,5.214Z"/>
          <path class="st3" d="M356.235,100.534c.011.956.83,1.734,1.829,1.741.996.006,1.797-.762,1.785-1.718-.012-.956-.83-1.735-1.827-1.742-.998-.007-1.799.763-1.788,1.719Z"/>
          <path class="st3" d="M375.744,99.98c.011.956.83,1.734,1.828,1.741.997.006,1.797-.761,1.786-1.717s-.83-1.735-1.827-1.742c-.998-.007-1.799.763-1.787,1.718Z"/>
        </g>
        <g>
          <path class="st3" d="M406.26,92.247c.545-.744,1.032-1.658.802-2.552-.266-1.036-1.392-1.64-1.781-2.636-.388-.994.042-2.106.004-3.173-.052-1.476-1.001-2.772-2.075-3.786-.114-.107-.234-.207-.351-.311-1.457-3.262-3.396-5.696-3.396-5.696l3.315,3.079c1.159-3.232-3.558-8.946-7.45-10.621-4.031-1.735-8.326,0-8.326,0,0,0-9.805-7.385-19.4-4.987-5.885,1.471-11.795,3.975-15.772,9.887-1.615.67-2.802,2.415-3.378,4.153-.727,2.197-.875,4.598-1.964,6.639-.788,1.476-2.093,2.96-1.685,4.582.336,1.335,1.741,2.16,2.194,3.46.454,1.305-.154,2.726-.138,4.108.024,2.107,1.711,4.075,3.79,4.421.583-3.48.995-6.987,1.251-10.506,1.687,1.1,5.25,2.171,12.146-.167l8.892-5.016s-4.389,3.804-2.246,4.447c1.818.545,11.352-4.635,14.202-6.219.852-.473,1.82-.723,2.788-.622,1.3.136,2.816.858,3.132,3.397.271,2.175-.995,22.55.881,22.563,1.062.008,5.141-1.771,5.832-2.239l.004,9.88c.381-.174.639-.533.879-.876,1.418-2.025,2.837-4.049,4.255-6.074.973-1.388,1.953-2.791,2.598-4.359s.933-3.337.476-4.969c-.319-1.139-.997-2.248-.811-3.416.145-.911.788-1.647,1.332-2.392Z"/>
          <path class="st3" d="M382.258,60.424c.137-.267.789-.273,1.691.137.896.402,2.006,1.266,2.853,2.519.845,1.256,1.229,2.608,1.265,3.59.041.99-.209,1.592-.508,1.618-.64.035-1.245-1.958-2.626-3.95-1.328-2.026-2.948-3.336-2.676-3.915Z"/>
          <path class="st12" d="M393.961,99.051c.214-.105,8.682-3.021,8.816,5.753s-8.702,7.099-8.721,6.848c-.019-.251-.095-12.601-.095-12.601Z"/>
          <path class="st6" d="M396.685,108.287c.038-.029.155.105.415.219.254.111.688.184,1.143.006.922-.354,1.68-1.838,1.698-3.42.01-.799-.169-1.557-.461-2.182-.278-.638-.7-1.08-1.168-1.156-.466-.1-.792.184-.896.433-.114.247-.055.421-.101.437-.024.022-.191-.144-.126-.508.034-.175.133-.383.337-.555.208-.175.516-.266.842-.236.677.036,1.296.65,1.617,1.336.359.689.579,1.54.567,2.437-.029,1.769-.909,3.437-2.171,3.823-.615.17-1.133-.008-1.402-.211-.275-.212-.324-.408-.294-.424Z"/>
        </g>
      </g>
    </g>
    <text class="st1" transform="translate(299.644 353.715)"><tspan x="0" y="0">FORBIDDEN</tspan></text>
    <text class="st4" transform="translate(328.488 329.906)"><tspan x="0" y="0">ERROR</tspan></text>
  </g>
  <g id="Speech_Bubble">
    <g>
      <g>
        <path class="st2" d="M333.51,111.937l-9.742-17.169c4.31-6.996,6.801-15.231,6.801-24.051,0-25.363-20.561-45.924-45.924-45.924s-45.924,20.561-45.924,45.924,20.561,45.924,45.924,45.924c10.591,0,20.336-3.594,28.105-9.617l-.016.021,20.776,4.892Z"/>
        <path class="st3" d="M333.51,111.937c-.893-.205-7.529-1.726-20.805-4.768-.068-.016-.111-.084-.095-.152.004-.018.013-.036.023-.05l.016-.02.179.178c-2.62,2.028-5.757,4.026-9.445,5.691-3.692,1.636-7.923,2.973-12.593,3.593-2.331.297-4.768.489-7.271.367-1.251-.071-2.524-.102-3.808-.209-1.276-.193-2.569-.389-3.88-.587-5.199-1.027-10.514-3.001-15.472-6.078-4.955-3.066-9.543-7.23-13.22-12.344-3.671-5.106-6.456-11.16-7.759-17.738-1.291-6.569-1.183-13.611.543-20.425,1.737-6.791,4.983-13.425,9.841-18.883l1.875-2.063c.616-.694,1.352-1.266,2.019-1.902.699-.602,1.33-1.284,2.081-1.815.736-.551,1.471-1.1,2.204-1.648.713-.577,1.5-1.042,2.281-1.509.778-.473,1.555-.944,2.329-1.414.815-.396,1.628-.79,2.439-1.184.818-.377,1.604-.823,2.462-1.094,6.669-2.648,13.782-3.656,20.581-3.163,6.801.489,13.308,2.44,18.891,5.582,5.6,3.117,10.323,7.279,13.968,11.928,3.657,4.651,6.233,9.781,7.829,14.89,1.585,5.133,2.015,10.223,1.998,14.935-.135,4.724-.994,9.076-2.246,12.896-1.255,3.825-2.902,7.115-4.604,9.884l.002-.125c6.171,11.035,9.208,16.465,9.635,17.23-.437-.759-3.541-6.151-9.849-17.109-.023-.04-.02-.089.002-.125,1.676-2.764,3.296-6.043,4.525-9.848,1.226-3.8,2.062-8.124,2.18-12.812,0-4.677-.441-9.724-2.025-14.808-1.596-5.06-4.161-10.136-7.792-14.736-3.62-4.598-8.304-8.71-13.851-11.788-5.53-3.103-11.971-5.024-18.7-5.502-6.728-.481-13.762.521-20.356,3.142-.848.268-1.625.71-2.434,1.083-.802.39-1.605.78-2.411,1.172-.766.465-1.533.932-2.303,1.4-.773.462-1.551.922-2.256,1.493-.725.542-1.451,1.085-2.179,1.63-.744.526-1.366,1.201-2.058,1.796-.66.63-1.388,1.195-1.997,1.881l-1.854,2.04c-4.805,5.397-8.015,11.957-9.736,18.671-1.709,6.738-1.821,13.704-.551,20.204,1.283,6.509,4.031,12.502,7.658,17.561,3.633,5.068,8.168,9.198,13.07,12.244,4.904,3.057,10.166,5.025,15.316,6.057,1.299.2,2.581.397,3.845.592,1.273.11,2.536.143,3.776.218,2.482.129,4.899-.054,7.214-.341,4.636-.6,8.839-1.91,12.514-3.52,3.67-1.638,6.798-3.608,9.416-5.609.056-.043.136-.033.179.022.036.047.034.111,0,.156l-.016.02-.072-.202c13.239,3.201,19.857,4.801,20.747,5.016Z"/>
      </g>
      <g>
        <rect class="st0" x="280.066" y="53.312" width="7.905" height="35.422" transform="translate(136.632 -181.935) rotate(45.733)"/>
        <rect class="st0" x="280.066" y="53.312" width="7.905" height="35.422" transform="translate(31.06 218.41) rotate(-44.267)"/>
      </g>
    </g>
  </g>
  <g id="Floor">
    <path class="st3" d="M713.663,476.296c0,.144-150.959.261-337.133.261s-337.165-.117-337.165-.261,150.926-.26,337.165-.26,337.133.117,337.133.26Z"/>
  </g>
  <g id="Plants">
    <g>
      <g>
        <path class="st0" d="M118.378,417.958v-11.203c-13.984,0-11.645-8.644-11.645-37.41,0-19.754.617-30.237-7.283-30.237-7.292,0-9.041,5.12-9.041,27.597,0,41.626,5.557,51.253,27.969,51.253Z"/>
        <path class="st0" d="M132.962,452.643v-11.203c13.984,0,11.645-8.644,11.645-37.41,0-19.754-.617-30.237,7.283-30.237,7.292,0,9.041,5.12,9.041,27.597,0,41.626-5.557,51.253-27.969,51.253Z"/>
        <g class="st5">
          <polygon points="137.859 440.915 140.042 452.226 136.235 452.566 135.667 441.305 137.859 440.915"/>
        </g>
        <path class="st0" d="M126.055,303.62c-11.071,0-10.251,14.485-10.251,32.222v141.068h20.502v-141.068c0-17.737.82-32.222-10.251-32.222Z"/>
        <path class="st0" d="M126.055,303.62c-11.071,0-10.251,14.485-10.251,32.222v141.068h20.502v-141.068c0-17.737.82-32.222-10.251-32.222Z"/>
        <path class="st3" d="M120.096,477.353s-.016-.153-.022-.451c-.003-.321-.007-.76-.012-1.324.001-1.189.003-2.899.005-5.088.028-4.444.067-10.831.116-18.712.149-15.821.354-37.637.581-61.734.286-24.104.546-45.922.734-61.742.051-3.949.097-7.528.331-10.664.233-3.135.631-5.824,1.143-7.979.505-2.157,1.07-3.786,1.51-4.865.21-.543.412-.941.531-1.214.125-.271.201-.404.201-.404,0,0-.044.148-.153.425-.103.28-.288.683-.482,1.23-.407,1.087-.938,2.719-1.41,4.871-.479,2.151-.846,4.829-1.05,7.954-.205,3.127-.226,6.698-.253,10.648-.149,15.821-.354,37.639-.581,61.744-.286,24.096-.546,45.911-.734,61.732-.119,7.881-.215,14.267-.282,18.711-.044,2.189-.079,3.898-.103,5.087-.017.563-.03,1.002-.04,1.323-.012.298-.031.451-.031.451Z"/>
        <path class="st3" d="M129.35,477.148s-.016-.152-.023-.449c-.003-.32-.008-.757-.014-1.318,0-1.184-.002-2.887-.004-5.067.02-4.425.049-10.785.084-18.633.122-15.754.289-37.478.474-61.471.245-24.001.466-45.726.627-61.48.049-3.933.081-7.489-.053-10.606-.117-3.118-.398-5.794-.739-7.962-.341-2.169-.74-3.829-1.033-4.948-.151-.539-.268-.96-.354-1.267-.079-.286-.106-.437-.106-.437,0,0,.936,2.271,1.693,6.62.373,2.172.685,4.856.83,7.982.162,3.126.156,6.69.13,10.623-.122,15.754-.289,37.48-.474,61.482-.245,23.993-.466,45.716-.627,61.47-.105,7.847-.19,14.207-.25,18.631-.041,2.18-.072,3.882-.094,5.066-.016.56-.028.997-.038,1.317-.011.297-.031.449-.031.449Z"/>
        <path class="st3" d="M136.516,452.459c-.144.005-.349-2.551-.457-5.709-.109-3.159-.08-5.723.063-5.728s.348,2.551.457,5.71c.109,3.158.08,5.722-.063,5.727Z"/>
        <path class="st3" d="M152.438,373.919c.018,0,.036.278.055.808.014.578.032,1.349.055,2.317.026,2.066.062,4.964.106,8.522.04,7.242.094,17.16.154,28.116.031,5.482-.01,10.768-.982,15.471-.904,4.709-2.865,8.716-5.212,11.483-2.325,2.799-4.892,4.415-6.772,5.144-1.887.751-3.02.826-3.02.826-.017-.067,1.104-.214,2.94-1.012,1.831-.776,4.318-2.41,6.567-5.19,2.272-2.754,4.158-6.689,5.027-11.344.934-4.647.963-9.891.932-15.376,0-10.956-.001-20.874-.001-28.117.025-3.559.045-6.457.059-8.522.018-.968.032-1.739.043-2.317.015-.53.032-.808.05-.808Z"/>
        <path class="st3" d="M115.79,406.33c.144,0,.26,2.882.26,6.436s-.117,6.437-.26,6.437-.26-2.881-.26-6.437.117-6.436.26-6.436Z"/>
        <path class="st3" d="M98.912,339.118c.018,0,.025.284.023.823-.009.586-.021,1.371-.037,2.357-.06,2.098-.145,5.044-.249,8.663-.216,7.313-.635,17.416-.492,28.571.13,5.573.084,10.923,1.242,15.606,1.09,4.674,2.987,8.698,5.399,11.409,2.39,2.748,5.071,4.193,6.99,4.811,1.938.625,3.097.595,3.087.667,0,0-1.159.101-3.148-.474-1.968-.568-4.733-1.99-7.205-4.76-2.499-2.739-4.461-6.816-5.591-11.544-1.199-4.752-1.165-10.141-1.296-15.708-.143-11.176.335-21.283.645-28.592.173-3.616.314-6.56.415-8.656.056-.984.101-1.767.134-2.353.037-.538.064-.82.082-.819Z"/>
        <g class="st5">
          <path d="M113.01,417.733l.418-11.515,2.383.408-.022,11.284s-2.363-.137-2.779-.177Z"/>
        </g>
        <path class="st3" d="M92.639,377.187c.021.142-1.07.424-2.438.629-1.368.205-2.494.256-2.515.114-.021-.142,1.07-.424,2.438-.629,1.367-.205,2.494-.256,2.515-.114Z"/>
        <path class="st3" d="M92.392,366.044c-.028.141-1.16.034-2.527-.24-1.368-.274-2.454-.61-2.426-.751.028-.141,1.16-.034,2.528.24,1.367.274,2.453.61,2.425.751Z"/>
        <path class="st3" d="M87.934,348.214c.05-.129,1.239.232,2.501,1.078,1.266.84,2.057,1.798,1.957,1.894-.105.107-1.028-.654-2.246-1.461-1.213-.814-2.27-1.373-2.212-1.511Z"/>
        <path class="st3" d="M95.116,336.822c.134-.053.685,1.012,1.232,2.379.547,1.368.882,2.52.749,2.573-.133.053-.685-1.012-1.232-2.38-.547-1.367-.882-2.52-.749-2.573Z"/>
        <path class="st3" d="M105.3,337.582c.126.068-.492,1.454-1.381,3.095-.889,1.641-1.713,2.916-1.839,2.848-.126-.068.492-1.454,1.381-3.096.889-1.641,1.712-2.916,1.839-2.847Z"/>
        <path class="st3" d="M108.736,350.938c.039.139-.928.528-2.159.87-1.231.342-2.26.507-2.299.368-.038-.138.928-.528,2.159-.87,1.231-.342,2.26-.507,2.298-.368Z"/>
        <path class="st3" d="M103.04,365.301c-.106.097-.747-.435-1.431-1.187-.684-.752-1.152-1.441-1.046-1.537.106-.097.747.435,1.431,1.187.684.752,1.152,1.44,1.045,1.537Z"/>
        <path class="st3" d="M107.718,379.693c-.098.105-1.008-.588-2.031-1.548-1.024-.96-1.773-1.823-1.675-1.928.098-.105,1.008.588,2.031,1.548,1.023.96,1.773,1.823,1.675,1.928Z"/>
        <path class="st3" d="M93.878,385.855c.098.105-.709,1.022-1.803,2.047-1.094,1.026-2.061,1.772-2.159,1.667-.098-.105.709-1.021,1.803-2.047,1.094-1.026,2.061-1.772,2.159-1.667Z"/>
        <path class="st3" d="M95.611,398.484c-.136-.046.03-.914.372-1.94.342-1.026.73-1.82.866-1.775s-.03.914-.372,1.94c-.342,1.026-.73,1.82-.866,1.775Z"/>
        <path class="st3" d="M96.882,413.11c-.131-.059.368-1.44,1.115-3.084.747-1.644,1.459-2.928,1.59-2.868.131.06-.368,1.44-1.116,3.084-.747,1.643-1.459,2.928-1.59,2.868Z"/>
        <path class="st3" d="M105.321,419.791c-.142-.025-.03-1.32.249-2.892.279-1.572.62-2.826.762-2.801.142.025.03,1.32-.249,2.892-.279,1.572-.62,2.825-.762,2.8Z"/>
        <path class="st3" d="M109.74,397.681c-.031.14-1.107.022-2.403-.265-1.297-.287-2.322-.633-2.291-.774.031-.14,1.107-.022,2.404.265,1.296.287,2.322.633,2.291.774Z"/>
        <path class="st3" d="M108.736,389.074c-.027.141-.935.09-2.029-.115-1.094-.205-1.96-.486-1.933-.627.026-.141.935-.09,2.029.116,1.094.205,1.96.486,1.933.627Z"/>
        <g class="st5">
          <path d="M98.89,339.732c.352.007.563,4.449.276,11.596-.135,3.572-.38,7.818-.66,12.52-.273,4.701-.599,9.865-.714,15.259-.138,5.388.226,10.442,1.271,14.936.522,2.246,1.094,4.376,1.849,6.231.755,1.867,1.661,3.514,2.659,4.889,1.991,2.773,4.354,4.339,6.084,5.171,1.743.836,2.829,1.108,2.788,1.317-.02.142-1.172.219-3.161-.374-1.963-.584-4.771-2.071-7.163-4.981-1.196-1.438-2.285-3.187-3.192-5.171-.915-1.998-1.587-4.194-2.197-6.523-1.23-4.677-1.686-10.051-1.541-15.544.117-5.492.519-10.678.924-15.385.413-4.706.848-8.93,1.217-12.475.755-7.087,1.193-11.474,1.56-11.465Z"/>
        </g>
        <path class="st3" d="M146.739,425.219c0,.144-1.01.26-2.256.26s-2.256-.117-2.256-.26,1.01-.26,2.256-.26,2.256.117,2.256.26Z"/>
        <path class="st3" d="M146.607,414.334c-.031.141-1.006.046-2.179-.21-1.173-.257-2.099-.578-2.068-.719.031-.14,1.006-.046,2.179.21,1.173.257,2.098.578,2.068.719Z"/>
        <path class="st3" d="M147.135,402.157c-.012.143-1.18.164-2.608.046-1.429-.118-2.577-.33-2.565-.473.012-.143,1.179-.164,2.608-.046,1.428.118,2.577.33,2.565.473Z"/>
        <path class="st3" d="M145.412,391.379c-.059.131-.968-.149-2.031-.625-1.063-.476-1.877-.969-1.818-1.1.059-.131.968.149,2.031.625,1.063.476,1.877.969,1.818,1.1Z"/>
        <path class="st3" d="M146.474,382.222c-.074.119-1.08-.385-2.123-1.283-1.047-.894-1.699-1.811-1.593-1.902.11-.098.915.639,1.931,1.507,1.012.871,1.864,1.554,1.784,1.678Z"/>
        <path class="st3" d="M149.647,375.46c-.13.063-.651-.748-1.165-1.81-.514-1.062-.826-1.974-.696-2.037.129-.063.651.748,1.165,1.81.514,1.062.826,1.974.696,2.037Z"/>
        <path class="st3" d="M158.695,373.075c.114.094-.386.878-.975,1.846-.594.966-1.064,1.768-1.199,1.709-.13-.054.14-.979.755-1.981.612-1.004,1.312-1.665,1.419-1.575Z"/>
        <path class="st3" d="M162.929,385.009c.03.137-1.045.481-2.423.59-1.378.114-2.494-.052-2.487-.192.006-.147,1.103-.216,2.445-.327,1.342-.106,2.436-.215,2.465-.071Z"/>
        <path class="st3" d="M162.798,393.637c.068.127-.859.76-2.071,1.414-1.212.655-2.25,1.083-2.319.956-.068-.127.859-.76,2.071-1.414,1.212-.654,2.25-1.082,2.318-.956Z"/>
        <path class="st3" d="M163.046,407.735c-.062.13-.915-.15-1.906-.624-.99-.475-1.743-.965-1.681-1.094.062-.13.915.15,1.906.625.99.475,1.743.964,1.68,1.094Z"/>
        <path class="st3" d="M162.257,415.514c.062.13-.63.591-1.546,1.031-.916.44-1.709.692-1.771.562-.062-.13.63-.591,1.546-1.031.916-.44,1.709-.692,1.771-.562Z"/>
        <path class="st3" d="M160.159,431.972c-.106.097-.787-.479-1.519-1.285-.733-.807-1.24-1.539-1.134-1.635s.787.479,1.519,1.285c.733.806,1.24,1.539,1.134,1.635Z"/>
        <path class="st3" d="M154.834,446.319c-.148.013-.357-1.161-.722-2.573-.359-1.414-.741-2.543-.605-2.603.126-.059.737,1.011,1.109,2.474.378,1.46.356,2.693.218,2.702Z"/>
        <path class="st3" d="M145.181,453.753c-.144-.01-.178-1.148-.078-2.541.1-1.394.298-2.514.442-2.504.143.01.178,1.148.078,2.542-.1,1.393-.298,2.514-.441,2.504Z"/>
        <path class="st3" d="M144.609,437.04c-.079.12-1.004-.347-2.066-1.043-1.063-.697-1.86-1.359-1.781-1.479.079-.12,1.004.347,2.067,1.044,1.062.697,1.86,1.359,1.781,1.479Z"/>
        <path class="st3" d="M156.95,411.161c-.093.109-.794-.336-1.564-.995-.77-.659-1.319-1.282-1.225-1.391.093-.109.793.336,1.564.995.77.659,1.319,1.282,1.225,1.391Z"/>
        <path class="st3" d="M150.082,393.528c.101.102-.534.894-1.418,1.768-.885.875-1.684,1.501-1.785,1.398-.101-.102.534-.894,1.419-1.769.884-.874,1.684-1.5,1.784-1.398Z"/>
        <path class="st3" d="M157.607,379.677c.072.125-.539.609-1.363,1.081-.824.472-1.55.754-1.622.629-.072-.125.539-.609,1.363-1.081.824-.472,1.55-.754,1.622-.629Z"/>
        <path class="st3" d="M149.746,443.883c-.132.057-.527-.569-.882-1.396-.355-.828-.535-1.545-.403-1.601.132-.057.527.568.882,1.396.355.828.535,1.544.403,1.601Z"/>
        <path class="st3" d="M118.214,350.569c-.008.144-1.262.195-2.802.114-1.54-.081-2.782-.263-2.775-.406.008-.144,1.262-.194,2.802-.113,1.54.081,2.782.263,2.774.406Z"/>
        <path class="st3" d="M117.331,334.482c-.055.133-1.216-.219-2.594-.786-1.378-.567-2.45-1.135-2.396-1.268.055-.133,1.216.219,2.594.787,1.377.567,2.45,1.135,2.395,1.268Z"/>
        <path class="st3" d="M118.798,314.525c-.016.134-1.357.018-2.796-.751-1.445-.759-2.295-1.802-2.193-1.891.106-.109,1.071.716,2.437,1.431,1.358.727,2.583,1.061,2.553,1.211Z"/>
        <path class="st3" d="M122.488,305.202c-.126.069-.805-.935-1.515-2.242-.71-1.307-1.184-2.423-1.057-2.491.126-.069.804.935,1.515,2.243.71,1.307,1.183,2.422,1.057,2.491Z"/>
        <path class="st3" d="M135.207,302.471c.111.092-.604,1.138-1.597,2.336-.993,1.199-1.888,2.096-1.998,2.005-.111-.092.604-1.138,1.597-2.337.993-1.198,1.887-2.096,1.998-2.004Z"/>
        <path class="st3" d="M138.438,316.254c.083.117-.771.866-1.908,1.673-1.138.807-2.127,1.366-2.21,1.248-.083-.117.771-.866,1.909-1.673,1.137-.807,2.126-1.365,2.21-1.248Z"/>
        <path class="st3" d="M139.929,335.362c.037.139-.918.515-2.134.839-1.216.324-2.231.474-2.268.335-.037-.139.918-.514,2.134-.839,1.215-.324,2.231-.474,2.268-.335Z"/>
        <path class="st3" d="M139.046,351.552c-.008.144-1.197.198-2.655.122-1.459-.076-2.636-.254-2.628-.398s1.196-.198,2.655-.122c1.459.076,2.636.254,2.628.398Z"/>
        <path class="st3" d="M139.342,367.938c.07.126-1.056.885-2.515,1.695-1.459.811-2.698,1.365-2.768,1.24s1.056-.885,2.515-1.695c1.459-.81,2.698-1.365,2.767-1.24Z"/>
        <path class="st3" d="M116.735,375.905c-.03.141-1.302-.01-2.841-.337-1.54-.327-2.763-.706-2.733-.846.03-.141,1.302.01,2.841.337,1.539.327,2.763.706,2.733.846Z"/>
        <path class="st3" d="M117.279,390.179c.092.111-.879,1.063-2.167,2.127-1.288,1.064-2.407,1.836-2.498,1.726-.092-.111.878-1.063,2.167-2.127,1.288-1.064,2.407-1.836,2.498-1.725Z"/>
        <path class="st3" d="M117.61,432.813c-.092.111-1.35-.785-2.809-1.999-1.46-1.215-2.568-2.289-2.476-2.4.092-.111,1.349.785,2.809,2,1.459,1.215,2.568,2.289,2.476,2.4Z"/>
        <path class="st3" d="M117.038,444.828c.093.11-.686.922-1.739,1.813-1.054.892-1.983,1.525-2.076,1.415-.093-.11.686-.921,1.74-1.813,1.053-.891,1.983-1.525,2.076-1.415Z"/>
        <path class="st3" d="M138.138,418.083c.086.115-.897.995-2.196,1.964-1.299.97-2.422,1.662-2.508,1.547-.086-.115.897-.994,2.196-1.964,1.299-.969,2.421-1.662,2.507-1.547Z"/>
        <path class="st3" d="M138.461,397.579c.089.103-.893,1.019-2.416,1.606-1.52.596-2.862.584-2.866.449-.016-.151,1.238-.367,2.678-.934,1.444-.554,2.514-1.243,2.605-1.12Z"/>
        <path class="st3" d="M138.761,382.595c-.053.134-1.082-.152-2.298-.637-1.216-.486-2.159-.987-2.105-1.121.053-.133,1.082.152,2.298.637,1.216.485,2.158.987,2.105,1.121Z"/>
        <path class="st3" d="M139.901,458.563c.061.13-1.139.824-2.68,1.55-1.542.726-2.841,1.209-2.902,1.079-.061-.13,1.138-.824,2.68-1.55,1.541-.726,2.84-1.209,2.902-1.079Z"/>
        <path class="st3" d="M117.051,363.521c-.096.107-1.355-.858-2.812-2.156-1.458-1.298-2.561-2.438-2.466-2.545.096-.107,1.354.858,2.812,2.156,1.457,1.298,2.561,2.438,2.465,2.545Z"/>
        <path class="st3" d="M140.516,355.905c.078.121-.975.941-2.353,1.833-1.378.892-2.558,1.516-2.636,1.396-.078-.121.975-.941,2.353-1.833,1.377-.891,2.558-1.516,2.636-1.396Z"/>
        <path class="st3" d="M116.451,323.917c-.02.142-.957.126-2.091-.036-1.135-.162-2.038-.409-2.018-.551.02-.142.956-.126,2.091.036,1.134.162,2.038.409,2.017.551Z"/>
        <path class="st3" d="M138.755,325.09c.048.135-.832.574-1.967.979-1.135.405-2.094.624-2.142.489-.048-.135.832-.574,1.967-.979,1.134-.405,2.093-.624,2.142-.488Z"/>
        <path class="st3" d="M127.037,360.031c.112.09-.587,1.147-1.562,2.361-.975,1.214-1.856,2.125-1.968,2.035-.112-.09.587-1.147,1.562-2.361.975-1.214,1.856-2.125,1.968-2.035Z"/>
        <path class="st3" d="M127.016,344.753c-.076.113-1.036-.46-1.802-1.574-.774-1.11-.972-2.21-.839-2.241.144-.046.545.914,1.267,1.945.711,1.038,1.468,1.752,1.374,1.87Z"/>
        <path class="st3" d="M126.722,323.036c.095.117-.721.901-1.514,2.021-.803,1.114-1.279,2.14-1.421,2.087-.131-.039.146-1.206.998-2.39.843-1.188,1.858-1.83,1.937-1.719Z"/>
        <path class="st3" d="M124.961,382.025c-.136-.048.083-1.007.488-2.142.405-1.135.843-2.015.979-1.967.135.048-.083,1.007-.489,2.142-.405,1.134-.843,2.015-.979,1.967Z"/>
        <path class="st3" d="M121.665,413.46c-.129.063-.965-1.394-1.866-3.253-.901-1.86-1.527-3.417-1.398-3.48.129-.063.965,1.393,1.866,3.253.901,1.859,1.527,3.417,1.398,3.48Z"/>
        <path class="st3" d="M127.54,418.383c.127.067-.629,1.76-1.69,3.782-1.061,2.023-2.024,3.608-2.151,3.541-.127-.067.629-1.76,1.69-3.783,1.061-2.022,2.024-3.607,2.151-3.541Z"/>
        <path class="st3" d="M127.258,451.898c-.128.065-.961-1.325-1.86-3.104-.899-1.78-1.524-3.274-1.395-3.339.128-.065.961,1.325,1.86,3.104.899,1.779,1.524,3.274,1.395,3.339Z"/>
        <path class="st3" d="M125.255,462.143c.12.08-.44,1.13-1.251,2.345-.811,1.216-1.565,2.137-1.684,2.057-.12-.08.44-1.13,1.251-2.346.81-1.215,1.564-2.136,1.684-2.057Z"/>
      </g>
      <g class="st5">
        <path d="M129.926,306.712c.719,0,1.302,37.994,1.302,84.851s-.583,84.859-1.302,84.859-1.302-37.986-1.302-84.859.583-84.851,1.302-84.851Z"/>
      </g>
      <g class="st5">
        <path d="M153.472,375.21c.354-.008.777,4.333.984,11.359.227,7.032.179,16.705.369,27.397.06,5.395-.243,10.618-1.313,15.283-.542,2.327-1.276,4.508-2.21,6.449-.935,1.896-1.827,3.589-2.844,5.128-.992,1.533-2.215,2.805-3.471,3.621-1.252.83-2.458,1.239-3.427,1.508-1.955.511-3.062.517-3.098.364-.049-.195,1-.545,2.754-1.317.868-.396,1.913-.91,2.915-1.732,1.007-.815,1.944-1.946,2.765-3.417.826-1.447,1.637-3.208,2.442-5.05.774-1.815,1.382-3.858,1.831-6.061.883-4.419,1.114-9.447,1.054-14.75-.19-10.716.149-20.429.394-27.429.264-7.007.492-11.345.857-11.353Z"/>
      </g>
    </g>
    <g>
      <g>
        <path class="st0" d="M585.842,416.76v-11.203c-13.984,0-11.645-8.644-11.645-37.41,0-19.754.617-30.237-7.283-30.237-7.292,0-9.041,5.12-9.041,27.597,0,41.626,5.557,51.253,27.969,51.253Z"/>
        <path class="st0" d="M600.426,451.446v-11.203c13.984,0,11.645-8.644,11.645-37.41,0-19.754-.617-30.237,7.283-30.237,7.292,0,9.041,5.12,9.041,27.597,0,41.626-5.557,51.253-27.969,51.253Z"/>
        <g class="st5">
          <polygon points="605.322 439.718 607.506 451.029 603.699 451.369 603.131 440.108 605.322 439.718"/>
        </g>
        <path class="st0" d="M593.518,302.422c-11.071,0-10.251,14.485-10.251,32.222v141.068h20.502v-141.068c0-17.737.82-32.222-10.251-32.222Z"/>
        <path class="st0" d="M593.518,302.422c-11.071,0-10.251,14.485-10.251,32.222v141.068h20.502v-141.068c0-17.737.82-32.222-10.251-32.222Z"/>
        <path class="st3" d="M587.56,476.156s-.016-.153-.022-.451c-.003-.321-.007-.76-.012-1.324.001-1.189.003-2.899.005-5.088.028-4.444.067-10.831.116-18.712.149-15.821.354-37.637.581-61.734.286-24.104.546-45.922.734-61.742.051-3.949.097-7.528.331-10.664.233-3.135.631-5.824,1.143-7.979.505-2.157,1.07-3.786,1.51-4.865.21-.543.412-.941.531-1.214.125-.271.201-.404.201-.404,0,0-.044.148-.153.425-.103.28-.289.683-.482,1.23-.407,1.087-.938,2.719-1.41,4.871-.479,2.151-.846,4.829-1.05,7.954-.205,3.127-.226,6.698-.253,10.648-.149,15.821-.354,37.639-.581,61.744-.286,24.096-.546,45.911-.734,61.732-.119,7.881-.215,14.267-.282,18.711-.044,2.189-.079,3.898-.103,5.087-.017.563-.03,1.002-.04,1.323-.012.298-.031.451-.031.451Z"/>
        <path class="st3" d="M596.814,475.95s-.016-.152-.023-.449c-.003-.32-.008-.757-.014-1.318,0-1.184-.002-2.887-.004-5.067.02-4.425.049-10.785.084-18.633.122-15.754.289-37.478.474-61.471.245-24.001.466-45.726.627-61.48.049-3.933.081-7.489-.053-10.606-.117-3.118-.398-5.794-.739-7.962-.341-2.169-.74-3.829-1.033-4.948-.151-.539-.268-.96-.354-1.267-.079-.286-.107-.437-.107-.437,0,0,.936,2.271,1.693,6.62.373,2.172.685,4.856.83,7.982.162,3.126.156,6.69.13,10.623-.121,15.754-.289,37.48-.474,61.482-.245,23.993-.466,45.716-.627,61.47-.105,7.847-.19,14.207-.25,18.631-.041,2.18-.072,3.882-.094,5.066-.016.56-.029.997-.038,1.317-.011.297-.031.449-.031.449Z"/>
        <path class="st3" d="M603.98,451.262c-.144.005-.349-2.551-.457-5.709-.109-3.159-.08-5.723.063-5.728s.348,2.551.457,5.71c.109,3.158.08,5.722-.063,5.727Z"/>
        <path class="st3" d="M619.902,372.722c.018,0,.036.278.055.808.014.578.032,1.349.055,2.317.026,2.066.062,4.964.106,8.522.04,7.242.094,17.16.154,28.116.031,5.482-.01,10.768-.982,15.471-.904,4.709-2.865,8.716-5.212,11.483-2.325,2.799-4.892,4.415-6.772,5.144-1.887.751-3.02.826-3.02.826-.017-.067,1.104-.214,2.94-1.012,1.831-.776,4.318-2.41,6.567-5.19,2.272-2.754,4.158-6.689,5.027-11.344.934-4.647.963-9.891.932-15.376,0-10.956-.001-20.874-.001-28.117.025-3.559.045-6.457.059-8.522.018-.968.032-1.739.043-2.317.015-.53.032-.808.05-.808Z"/>
        <path class="st3" d="M583.254,405.132c.144,0,.26,2.882.26,6.436s-.117,6.437-.26,6.437-.26-2.881-.26-6.437.117-6.436.26-6.436Z"/>
        <path class="st3" d="M566.376,337.921c.018,0,.025.284.023.823-.009.586-.021,1.371-.037,2.357-.06,2.098-.145,5.044-.249,8.663-.216,7.313-.635,17.416-.492,28.571.13,5.573.084,10.923,1.242,15.606,1.09,4.674,2.987,8.698,5.399,11.409,2.39,2.748,5.071,4.193,6.99,4.811,1.938.625,3.097.595,3.087.667,0,0-1.159.101-3.148-.474-1.968-.568-4.733-1.99-7.205-4.76-2.499-2.739-4.461-6.816-5.591-11.544-1.199-4.752-1.165-10.141-1.296-15.708-.143-11.176.335-21.283.645-28.592.173-3.616.314-6.56.415-8.656.056-.984.101-1.767.134-2.353.036-.538.064-.82.082-.819Z"/>
        <g class="st5">
          <path d="M580.474,416.536l.418-11.515,2.383.408-.022,11.284s-2.363-.137-2.779-.177Z"/>
        </g>
        <path class="st3" d="M560.103,375.99c.021.142-1.07.424-2.438.629-1.368.205-2.494.256-2.515.114-.021-.142,1.07-.424,2.438-.629,1.367-.205,2.494-.256,2.515-.114Z"/>
        <path class="st3" d="M559.856,364.846c-.028.141-1.16.034-2.527-.24-1.368-.274-2.454-.61-2.426-.751.028-.141,1.16-.034,2.528.24,1.368.274,2.453.61,2.425.751Z"/>
        <path class="st3" d="M555.398,347.016c.05-.129,1.239.232,2.501,1.078,1.266.84,2.057,1.798,1.957,1.894-.105.107-1.028-.654-2.246-1.461-1.213-.814-2.27-1.373-2.212-1.511Z"/>
        <path class="st3" d="M562.58,335.625c.134-.053.685,1.012,1.232,2.379.547,1.368.882,2.52.749,2.573-.133.053-.685-1.012-1.232-2.38-.547-1.367-.882-2.52-.749-2.573Z"/>
        <path class="st3" d="M572.764,336.385c.126.068-.492,1.454-1.381,3.095-.889,1.641-1.713,2.916-1.839,2.848-.126-.068.492-1.454,1.381-3.096.889-1.641,1.712-2.916,1.839-2.847Z"/>
        <path class="st3" d="M576.2,349.74c.039.139-.928.528-2.159.87-1.231.342-2.26.507-2.299.368-.038-.138.928-.528,2.159-.87,1.231-.342,2.26-.507,2.298-.368Z"/>
        <path class="st3" d="M570.504,364.103c-.106.097-.747-.435-1.431-1.187-.684-.752-1.152-1.441-1.046-1.537.106-.097.747.435,1.431,1.187.684.752,1.152,1.44,1.045,1.537Z"/>
        <path class="st3" d="M575.182,378.496c-.098.105-1.008-.588-2.031-1.548-1.024-.96-1.773-1.823-1.675-1.928.098-.105,1.008.588,2.031,1.548,1.023.96,1.773,1.823,1.675,1.928Z"/>
        <path class="st3" d="M561.341,384.657c.098.105-.709,1.022-1.803,2.047-1.094,1.026-2.061,1.772-2.159,1.667-.098-.105.709-1.021,1.803-2.047,1.094-1.026,2.061-1.772,2.159-1.667Z"/>
        <path class="st3" d="M563.075,397.287c-.136-.046.03-.914.372-1.94.342-1.026.73-1.82.866-1.775s-.03.914-.372,1.94c-.342,1.026-.73,1.82-.866,1.775Z"/>
        <path class="st3" d="M564.346,411.913c-.131-.059.369-1.44,1.115-3.084.747-1.644,1.459-2.928,1.59-2.868.131.06-.368,1.44-1.116,3.084-.747,1.643-1.459,2.928-1.59,2.868Z"/>
        <path class="st3" d="M572.784,418.593c-.142-.025-.03-1.32.249-2.892.279-1.572.62-2.826.762-2.801.142.025.03,1.32-.249,2.892-.279,1.572-.62,2.825-.762,2.8Z"/>
        <path class="st3" d="M577.204,396.484c-.031.14-1.107.022-2.403-.265-1.297-.287-2.322-.633-2.291-.774.031-.14,1.107-.022,2.404.265,1.296.287,2.322.633,2.291.774Z"/>
        <path class="st3" d="M576.2,387.877c-.027.141-.935.09-2.029-.115-1.094-.205-1.96-.486-1.933-.627.026-.141.935-.09,2.029.116,1.094.205,1.96.486,1.933.627Z"/>
        <g class="st5">
          <path d="M566.354,338.535c.352.007.563,4.449.276,11.596-.135,3.572-.38,7.818-.66,12.52-.273,4.701-.599,9.865-.714,15.259-.138,5.388.226,10.442,1.271,14.936.522,2.246,1.094,4.376,1.849,6.231.755,1.867,1.661,3.514,2.659,4.889,1.991,2.773,4.354,4.339,6.084,5.171,1.743.836,2.829,1.108,2.788,1.317-.02.142-1.172.219-3.161-.374-1.963-.584-4.771-2.071-7.163-4.981-1.196-1.438-2.285-3.187-3.192-5.171-.915-1.998-1.587-4.194-2.197-6.523-1.23-4.677-1.686-10.051-1.541-15.544.117-5.492.519-10.678.924-15.385.413-4.706.848-8.93,1.217-12.475.755-7.087,1.193-11.474,1.56-11.465Z"/>
        </g>
        <path class="st3" d="M614.203,424.021c0,.144-1.01.26-2.256.26s-2.256-.117-2.256-.26,1.01-.26,2.256-.26,2.256.117,2.256.26Z"/>
        <path class="st3" d="M614.071,413.137c-.031.141-1.006.046-2.179-.21-1.173-.257-2.099-.578-2.068-.719.031-.14,1.006-.046,2.179.21,1.173.257,2.098.578,2.067.719Z"/>
        <path class="st3" d="M614.599,400.96c-.012.143-1.18.164-2.608.046-1.429-.118-2.577-.33-2.565-.473.012-.143,1.179-.164,2.608-.046,1.428.118,2.577.33,2.565.473Z"/>
        <path class="st3" d="M612.876,390.181c-.059.131-.968-.149-2.031-.625-1.063-.476-1.877-.969-1.818-1.1.059-.131.968.149,2.031.625,1.063.476,1.877.969,1.818,1.1Z"/>
        <path class="st3" d="M613.938,381.025c-.074.119-1.08-.385-2.123-1.283-1.047-.894-1.699-1.811-1.593-1.902.11-.098.915.639,1.931,1.507,1.012.871,1.864,1.554,1.784,1.678Z"/>
        <path class="st3" d="M617.111,374.262c-.13.063-.651-.748-1.165-1.81-.514-1.062-.826-1.974-.696-2.037.129-.063.651.748,1.165,1.81.514,1.062.826,1.974.696,2.037Z"/>
        <path class="st3" d="M626.159,371.878c.114.094-.386.878-.975,1.846-.594.966-1.064,1.768-1.199,1.709-.13-.054.139-.979.755-1.981.612-1.004,1.312-1.665,1.419-1.575Z"/>
        <path class="st3" d="M630.393,383.811c.03.137-1.045.481-2.423.59-1.378.114-2.494-.052-2.487-.192.006-.147,1.103-.216,2.445-.327,1.342-.106,2.436-.215,2.465-.071Z"/>
        <path class="st3" d="M630.261,392.439c.068.127-.859.76-2.071,1.414-1.212.655-2.25,1.083-2.318.956-.068-.127.859-.76,2.071-1.414,1.212-.654,2.25-1.082,2.318-.956Z"/>
        <path class="st3" d="M630.51,406.537c-.062.13-.915-.15-1.906-.624-.99-.475-1.743-.965-1.681-1.094.062-.13.915.15,1.906.625.99.475,1.743.964,1.68,1.094Z"/>
        <path class="st3" d="M629.721,414.316c.062.13-.63.591-1.546,1.031-.916.44-1.709.692-1.771.562-.062-.13.63-.591,1.546-1.031.916-.44,1.709-.692,1.771-.562Z"/>
        <path class="st3" d="M627.623,430.774c-.106.097-.787-.479-1.519-1.285-.733-.807-1.24-1.539-1.134-1.635s.787.479,1.519,1.285c.733.806,1.24,1.539,1.134,1.635Z"/>
        <path class="st3" d="M622.298,445.122c-.148.013-.357-1.161-.722-2.573-.359-1.414-.741-2.543-.605-2.603.126-.059.737,1.011,1.109,2.474.378,1.46.356,2.693.218,2.702Z"/>
        <path class="st3" d="M612.645,452.556c-.143-.01-.178-1.148-.078-2.541.1-1.394.298-2.514.442-2.504.143.01.178,1.148.078,2.542-.1,1.393-.298,2.514-.442,2.504Z"/>
        <path class="st3" d="M612.073,435.842c-.079.12-1.004-.347-2.067-1.043-1.063-.697-1.86-1.359-1.781-1.479.079-.12,1.004.347,2.067,1.044,1.062.697,1.86,1.359,1.781,1.479Z"/>
        <path class="st3" d="M624.414,409.963c-.094.109-.794-.336-1.564-.995-.77-.659-1.319-1.282-1.225-1.391.093-.109.793.336,1.564.995.77.659,1.319,1.282,1.225,1.391Z"/>
        <path class="st3" d="M617.546,392.33c.101.102-.534.894-1.418,1.768-.885.875-1.684,1.501-1.785,1.398-.101-.102.534-.894,1.419-1.769.884-.874,1.684-1.5,1.784-1.398Z"/>
        <path class="st3" d="M625.071,378.479c.071.125-.539.609-1.363,1.081-.824.472-1.55.754-1.622.629-.072-.125.539-.609,1.363-1.081.824-.472,1.55-.754,1.622-.629Z"/>
        <path class="st3" d="M617.21,442.686c-.132.057-.527-.569-.882-1.396-.355-.828-.535-1.545-.403-1.601.132-.057.527.568.882,1.396.355.828.535,1.544.403,1.601Z"/>
        <path class="st3" d="M585.678,349.371c-.008.144-1.262.195-2.802.114-1.54-.081-2.782-.263-2.775-.406.008-.144,1.262-.194,2.802-.113,1.54.081,2.782.263,2.774.406Z"/>
        <path class="st3" d="M584.795,333.284c-.055.133-1.216-.219-2.594-.786-1.378-.567-2.45-1.135-2.396-1.268.055-.133,1.216.219,2.594.787,1.377.567,2.45,1.135,2.395,1.268Z"/>
        <path class="st3" d="M586.262,313.328c-.016.134-1.357.018-2.796-.751-1.445-.759-2.295-1.802-2.193-1.891.106-.109,1.071.716,2.437,1.431,1.358.727,2.583,1.061,2.553,1.211Z"/>
        <path class="st3" d="M589.952,304.005c-.126.069-.805-.935-1.515-2.242-.71-1.307-1.183-2.423-1.057-2.491.126-.069.804.935,1.515,2.243.71,1.307,1.183,2.422,1.057,2.491Z"/>
        <path class="st3" d="M602.671,301.274c.111.092-.604,1.138-1.597,2.336-.993,1.199-1.888,2.096-1.998,2.005-.111-.092.604-1.138,1.597-2.337.993-1.198,1.888-2.096,1.998-2.004Z"/>
        <path class="st3" d="M605.902,315.056c.083.117-.771.866-1.908,1.673-1.138.807-2.127,1.366-2.21,1.248-.083-.117.771-.866,1.909-1.673,1.137-.807,2.126-1.365,2.21-1.248Z"/>
        <path class="st3" d="M607.392,334.165c.037.139-.918.515-2.134.839-1.216.324-2.231.474-2.268.335-.037-.139.918-.514,2.134-.839,1.215-.324,2.231-.474,2.268-.335Z"/>
        <path class="st3" d="M606.51,350.354c-.007.144-1.197.198-2.655.122-1.459-.076-2.636-.254-2.628-.398s1.196-.198,2.655-.122c1.459.076,2.636.254,2.628.398Z"/>
        <path class="st3" d="M606.805,366.74c.07.126-1.056.885-2.515,1.695-1.459.811-2.698,1.365-2.768,1.24s1.056-.885,2.515-1.695c1.459-.81,2.698-1.365,2.767-1.24Z"/>
        <path class="st3" d="M584.199,374.708c-.03.141-1.302-.01-2.841-.337-1.54-.327-2.763-.706-2.733-.846.03-.141,1.302.01,2.841.337,1.539.327,2.763.706,2.733.846Z"/>
        <path class="st3" d="M584.743,388.982c.092.111-.879,1.063-2.167,2.127-1.288,1.064-2.407,1.836-2.498,1.726-.092-.111.878-1.063,2.167-2.127,1.288-1.064,2.407-1.836,2.498-1.725Z"/>
        <path class="st3" d="M585.074,431.616c-.092.111-1.35-.785-2.809-1.999-1.46-1.215-2.568-2.289-2.476-2.4.092-.111,1.349.785,2.809,2,1.459,1.215,2.568,2.289,2.476,2.4Z"/>
        <path class="st3" d="M584.501,443.631c.093.11-.686.922-1.739,1.813-1.054.892-1.983,1.525-2.076,1.415-.093-.11.686-.921,1.74-1.813,1.053-.891,1.983-1.525,2.076-1.415Z"/>
        <path class="st3" d="M605.602,416.886c.086.115-.897.995-2.196,1.964-1.299.97-2.422,1.662-2.508,1.547-.086-.115.897-.994,2.196-1.964,1.299-.969,2.422-1.662,2.507-1.547Z"/>
        <path class="st3" d="M605.925,396.382c.089.103-.893,1.019-2.416,1.606-1.52.596-2.862.584-2.866.449-.016-.151,1.238-.367,2.678-.934,1.444-.554,2.514-1.243,2.605-1.12Z"/>
        <path class="st3" d="M606.225,381.398c-.053.134-1.082-.152-2.298-.637-1.216-.486-2.159-.987-2.105-1.121.053-.133,1.082.152,2.298.637,1.216.485,2.158.987,2.105,1.121Z"/>
        <path class="st3" d="M607.365,457.365c.061.13-1.139.824-2.68,1.55-1.542.726-2.841,1.209-2.902,1.079-.061-.13,1.138-.824,2.68-1.55,1.541-.726,2.84-1.209,2.902-1.079Z"/>
        <path class="st3" d="M584.515,362.323c-.096.107-1.355-.858-2.812-2.156-1.458-1.298-2.561-2.438-2.466-2.545.096-.107,1.354.858,2.812,2.156,1.457,1.298,2.561,2.438,2.465,2.545Z"/>
        <path class="st3" d="M607.979,354.708c.078.121-.975.941-2.353,1.833-1.378.892-2.558,1.516-2.636,1.396-.078-.121.975-.941,2.353-1.833,1.378-.891,2.558-1.516,2.636-1.396Z"/>
        <path class="st3" d="M583.914,322.719c-.02.142-.957.126-2.091-.036-1.135-.162-2.038-.409-2.018-.551.02-.142.956-.126,2.091.036,1.134.162,2.038.409,2.017.551Z"/>
        <path class="st3" d="M606.219,323.893c.048.135-.832.574-1.967.979-1.135.405-2.094.624-2.142.489-.048-.135.832-.574,1.967-.979,1.134-.405,2.093-.624,2.142-.488Z"/>
        <path class="st3" d="M594.501,358.834c.112.09-.587,1.147-1.562,2.361-.975,1.214-1.856,2.125-1.968,2.035-.112-.09.587-1.147,1.562-2.361.975-1.214,1.856-2.125,1.968-2.035Z"/>
        <path class="st3" d="M594.48,343.556c-.076.113-1.036-.46-1.802-1.574-.774-1.11-.972-2.21-.839-2.241.144-.046.545.914,1.267,1.945.711,1.038,1.468,1.752,1.374,1.87Z"/>
        <path class="st3" d="M594.186,321.839c.095.117-.721.901-1.514,2.021-.803,1.114-1.279,2.14-1.421,2.087-.131-.039.147-1.206.998-2.39.843-1.188,1.858-1.83,1.937-1.719Z"/>
        <path class="st3" d="M592.425,380.827c-.136-.048.083-1.007.488-2.142.405-1.135.843-2.015.979-1.967.135.048-.083,1.007-.489,2.142-.405,1.134-.843,2.015-.979,1.967Z"/>
        <path class="st3" d="M589.129,412.262c-.129.063-.965-1.394-1.866-3.253-.901-1.86-1.527-3.417-1.398-3.48.129-.063.965,1.393,1.866,3.253.901,1.859,1.527,3.417,1.397,3.48Z"/>
        <path class="st3" d="M595.004,417.186c.127.067-.629,1.76-1.69,3.782-1.061,2.023-2.024,3.608-2.151,3.541-.127-.067.629-1.76,1.69-3.783,1.061-2.022,2.024-3.607,2.151-3.541Z"/>
        <path class="st3" d="M594.722,450.7c-.128.065-.961-1.325-1.86-3.104-.899-1.78-1.524-3.274-1.395-3.339.128-.065.961,1.325,1.86,3.104.899,1.779,1.523,3.274,1.395,3.339Z"/>
        <path class="st3" d="M592.719,460.946c.12.08-.44,1.13-1.251,2.345-.811,1.216-1.565,2.137-1.684,2.057-.12-.08.44-1.13,1.251-2.346.81-1.215,1.564-2.136,1.684-2.057Z"/>
      </g>
      <g class="st5">
        <path d="M597.39,305.514c.719,0,1.302,37.994,1.302,84.851s-.583,84.859-1.302,84.859-1.302-37.986-1.302-84.859.583-84.851,1.302-84.851Z"/>
      </g>
      <g class="st5">
        <path d="M620.936,374.012c.354-.008.777,4.333.984,11.359.227,7.032.179,16.705.369,27.397.06,5.395-.243,10.618-1.313,15.283-.542,2.327-1.276,4.508-2.21,6.449-.935,1.896-1.827,3.589-2.844,5.128-.992,1.533-2.215,2.805-3.471,3.621-1.252.83-2.458,1.239-3.427,1.508-1.955.511-3.062.517-3.098.364-.049-.195,1-.545,2.754-1.317.868-.396,1.913-.91,2.915-1.732,1.007-.815,1.944-1.946,2.765-3.417.826-1.447,1.637-3.208,2.442-5.05.774-1.815,1.382-3.858,1.831-6.061.883-4.419,1.114-9.447,1.054-14.75-.19-10.716.149-20.429.394-27.429.264-7.007.492-11.345.857-11.353Z"/>
      </g>
    </g>
  </g>
</svg>